<?xml version="1.0" encoding="UTF-8"?>
<!DOCTYPE svg PUBLIC "-//W3C//DTD SVG 1.1//EN" "http://www.w3.org/Graphics/SVG/1.1/DTD/svg11.dtd">
<svg xmlns="http://www.w3.org/2000/svg" version="1.1" width="1200px" height="1380px" style="shape-rendering:geometricPrecision; text-rendering:geometricPrecision; image-rendering:optimizeQuality; fill-rule:evenodd; clip-rule:evenodd" xmlns:xlink="http://www.w3.org/1999/xlink">
<g><path style="opacity:0.998" fill="#000000" d="M -0.5,-0.5 C 399.5,-0.5 799.5,-0.5 1199.5,-0.5C 1199.5,190.833 1199.5,382.167 1199.5,573.5C 1193.87,707.336 1160.71,834.003 1100,953.5C 1037.43,1070.09 952.596,1167.59 845.5,1246C 769.535,1300.33 687.869,1344.83 600.5,1379.5C 599.833,1379.5 599.167,1379.5 598.5,1379.5C 511.131,1344.83 429.465,1300.33 353.5,1246C 150.618,1094.86 34.451,892.692 5,639.5C 2.82605,617.372 0.992719,595.372 -0.5,573.5C -0.5,382.167 -0.5,190.833 -0.5,-0.5 Z"/></g>
<g><path style="opacity:1" fill="#eee005" d="M 592.5,101.5 C 593.239,101.369 593.906,101.536 594.5,102C 593.293,107.144 593.46,112.311 595,117.5C 597.06,122.62 599.393,127.62 602,132.5C 607.578,140.749 613.912,148.416 621,155.5C 621.533,160.347 621.366,165.18 620.5,170C 620.667,171.5 620.833,173 621,174.5C 621.414,174.957 621.914,175.291 622.5,175.5C 625.282,170.883 628.949,167.05 633.5,164C 642.383,159.708 651.05,155.041 659.5,150C 663.547,146.406 665.881,141.906 666.5,136.5C 672.922,148.806 673.089,161.139 667,173.5C 659,180.167 651.667,187.5 645,195.5C 644.501,199.821 644.334,204.154 644.5,208.5C 647.234,207.279 650.067,206.279 653,205.5C 661.37,207.134 669.537,209.467 677.5,212.5C 688.541,208.369 689.541,210.869 680.5,220C 675.659,222.921 670.659,225.588 665.5,228C 655.591,231.414 645.924,235.414 636.5,240C 634.259,241.739 632.592,243.906 631.5,246.5C 607.843,247.5 584.176,247.833 560.5,247.5C 559.98,243.464 557.98,240.297 554.5,238C 542.05,231.743 529.383,226.077 516.5,221C 513.28,217.059 511.946,212.559 512.5,207.5C 522.885,211.608 533.218,211.441 543.5,207C 545.124,205.883 546.124,204.383 546.5,202.5C 540.625,194.117 533.792,186.45 526,179.5C 515.633,165.872 514.967,151.872 524,137.5C 524.865,152.107 532.365,160.94 546.5,164C 556.654,163.738 563.987,168.071 568.5,177C 569.5,177.667 570.5,177.667 571.5,177C 573.189,174.443 574.356,171.609 575,168.5C 575.383,157.332 575.217,146.165 574.5,135C 572.88,125.304 575.213,116.804 581.5,109.5C 585.057,106.567 588.724,103.901 592.5,101.5 Z"/></g>
<g><path style="opacity:1" fill="#efe105" d="M 232.5,139.5 C 257.168,151.834 281.835,164.167 306.5,176.5C 297,196.167 287.5,215.833 278,235.5C 274.429,240.031 269.929,243.198 264.5,245C 257.476,245.169 250.476,245.669 243.5,246.5C 251.781,260.173 257.614,274.839 261,290.5C 263.016,307.452 264.516,324.452 265.5,341.5C 240.931,340.691 217.597,334.858 195.5,324C 171.071,313.208 149.071,298.875 129.5,281C 177.864,244.123 212.198,196.956 232.5,139.5 Z"/></g>
<g><path style="opacity:1" fill="#efe105" d="M 965.5,138.5 C 986.128,196.26 1020.79,243.76 1069.5,281C 1030.93,316.112 985.599,336.279 933.5,341.5C 934.484,324.452 935.984,307.452 938,290.5C 941.386,274.839 947.219,260.173 955.5,246.5C 948.524,245.669 941.524,245.169 934.5,245C 929.071,243.198 924.571,240.031 921,235.5C 911.5,215.833 902,196.167 892.5,176.5C 917.269,164.616 941.603,151.949 965.5,138.5 Z"/></g>
<g><path style="opacity:1" fill="#efe105" d="M 309.5,177.5 C 345.096,190.793 377.096,209.959 405.5,235C 413,239.918 420.667,244.584 428.5,249C 460.273,264.303 492.106,279.47 524,294.5C 525.257,294.85 525.591,295.517 525,296.5C 510.874,308.972 500.207,323.972 493,341.5C 492.439,342.022 491.772,342.355 491,342.5C 419.087,310.299 349.587,274.132 282.5,234C 291.377,215.08 300.377,196.246 309.5,177.5 Z"/></g>
<g><path style="opacity:1" fill="#efe105" d="M 885.5,177.5 C 887.144,177.286 888.644,177.62 890,178.5C 898.667,196.5 907.333,214.5 916,232.5C 916.749,233.635 916.583,234.635 915.5,235.5C 848.234,274.802 778.901,310.468 707.5,342.5C 699.618,324.783 688.451,309.45 674,296.5C 673.312,295.668 673.479,295.002 674.5,294.5C 706.59,279.623 738.59,264.456 770.5,249C 786.89,240.275 801.89,229.608 815.5,217C 837.501,201.499 860.834,188.332 885.5,177.5 Z"/></g>
<g><path style="opacity:1" fill="#e8db05" d="M 553.5,250.5 C 582.169,250.333 610.835,250.5 639.5,251C 642.956,251.18 646.289,251.847 649.5,253C 652.367,257.591 652.034,261.924 648.5,266C 616.167,266.667 583.833,266.667 551.5,266C 549.09,265.242 548.09,263.575 548.5,261C 548.566,256.587 550.232,253.087 553.5,250.5 Z"/></g>
<g><path style="opacity:1" fill="#877f03" d="M 559.5,270.5 C 572.162,269.833 584.996,269.5 598,269.5C 611.185,269.501 624.018,270.167 636.5,271.5C 610.908,270.51 585.241,270.176 559.5,270.5 Z"/></g>
<g><path style="opacity:1" fill="#eee005" d="M 559.5,270.5 C 585.241,270.176 610.908,270.51 636.5,271.5C 636.813,274.247 636.48,276.914 635.5,279.5C 614.094,286.39 592.428,287.223 570.5,282C 564.557,280.226 560.89,276.393 559.5,270.5 Z"/></g>
<g><path style="opacity:1" fill="#f0e205" d="M 557.5,280.5 C 582.347,289.758 607.681,290.925 633.5,284C 635.664,283.086 637.664,281.919 639.5,280.5C 683.795,300.232 707.129,334.399 709.5,383C 704.416,444.188 671.749,480.522 611.5,492C 569.287,495.137 535.453,479.97 510,446.5C 481.455,401.208 482.788,356.875 514,313.5C 526.13,299.181 540.63,288.181 557.5,280.5 Z"/></g>
<g><path style="opacity:1" fill="#ede005" d="M 125.5,283.5 C 137.619,292.071 149.619,300.904 161.5,310C 184.514,323.449 208.847,333.782 234.5,341C 244.666,343.35 255,344.517 265.5,344.5C 266.266,353.479 266.599,362.479 266.5,371.5C 213.051,374.072 165.717,358.572 124.5,325C 115.837,316.843 108.503,307.677 102.5,297.5C 110.721,293.565 118.388,288.898 125.5,283.5 Z"/></g>
<g><path style="opacity:1" fill="#ede005" d="M 1071.5,283.5 C 1079.63,288.4 1087.96,293.067 1096.5,297.5C 1085.31,316.191 1070.31,331.024 1051.5,342C 1014.82,363.659 975.155,373.493 932.5,371.5C 932.401,362.479 932.734,353.479 933.5,344.5C 959.04,343.198 983.373,337.032 1006.5,326C 1030.77,315.51 1052.44,301.343 1071.5,283.5 Z"/></g>
<g><path style="opacity:1" fill="#efe105" d="M 484.5,384.5 C 486.236,403.761 491.57,422.095 500.5,439.5C 414.652,479.092 329.652,520.259 245.5,563C 227.285,574.215 212.785,589.048 202,607.5C 185.586,626.584 166.419,630.084 144.5,618C 128.123,607.292 113.956,594.126 102,578.5C 101.289,576.633 101.789,575.133 103.5,574C 134.341,557.079 165.341,540.412 196.5,524C 292.225,476.636 388.225,430.136 484.5,384.5 Z"/></g>
<g><path style="opacity:1" fill="#efe105" d="M 713.5,384.5 C 809.628,429.563 905.295,475.73 1000.5,523C 1032.33,539.746 1063.99,556.746 1095.5,574C 1097.21,575.133 1097.71,576.633 1097,578.5C 1082.54,596.969 1065.04,611.802 1044.5,623C 1025.22,628.461 1009.38,623.295 997,607.5C 986.215,589.048 971.715,574.215 953.5,563C 869.264,520.215 784.264,479.049 698.5,439.5C 707.711,422.322 712.711,403.989 713.5,384.5 Z"/></g>
<g><path style="opacity:1" fill="#0777b5" d="M 596.5,513.5 C 601.817,513.818 606.817,515.318 611.5,518C 784.661,596.217 957.661,674.717 1130.5,753.5C 1079.53,949.733 971.198,1105.57 805.5,1221C 741.189,1265.33 672.523,1302.16 599.5,1331.5C 484.973,1285.95 382.64,1221.78 292.5,1139C 181.773,1033.27 107.44,905.774 69.5,756.5C 71.5692,753.952 74.2359,752.119 77.5,751C 250.829,672.332 423.829,593.165 596.5,513.5 Z"/></g>
<g><path style="opacity:1" fill="#e3e3e3" d="M 455.5,940.5 C 471.269,896.86 486.269,852.86 500.5,808.5C 520.931,749.376 541.098,690.043 561,630.5C 563.041,629.248 565.375,628.581 568,628.5C 570.167,628.833 572.333,629.167 574.5,629.5C 532.694,751.614 491.027,873.781 449.5,996C 452.33,1000.48 453.496,1005.31 453,1010.5C 443.333,1023.83 433.667,1037.17 424,1050.5C 424.21,1033.47 425.21,1016.47 427,999.5C 427.374,998.584 427.874,997.75 428.5,997C 433.224,996.896 436.39,994.73 438,990.5C 444.535,974.062 450.368,957.395 455.5,940.5 Z"/></g>
<g><path style="opacity:1" fill="#e9db05" d="M 711.5,778.5 C 713.772,816.779 700.105,847.945 670.5,872C 651.594,885.481 631.261,888.148 609.5,880C 603.393,876.388 597.727,872.221 592.5,867.5C 576.833,847.167 570.999,824.167 575,798.5C 580.766,762.761 599.599,736.595 631.5,720C 670.629,709.651 696.462,723.818 709,762.5C 710.546,767.73 711.38,773.063 711.5,778.5 Z"/></g>
<g><path style="opacity:1" fill="#e6e6e6" d="M 754.5,893.5 C 752.973,893.573 751.973,892.906 751.5,891.5C 747.092,884.918 742.092,878.751 736.5,873C 744.434,871.987 751.768,873.654 758.5,878C 766.796,884.627 774.796,891.627 782.5,899C 789.289,903.704 796.622,904.704 804.5,902C 808.55,897.851 810.216,892.851 809.5,887C 809.086,873.841 802.753,864.841 790.5,860C 780.167,859.667 769.833,859.333 759.5,859C 763.017,857.516 764.851,855.016 765,851.5C 758.632,848.484 752.965,844.484 748,839.5C 746.182,835.23 744.515,830.897 743,826.5C 741.5,825 740,823.5 738.5,822C 743.156,819.942 747.656,820.109 752,822.5C 752.692,821.975 753.192,821.308 753.5,820.5C 752.081,818.664 750.914,816.664 750,814.5C 749.501,809.511 749.334,804.511 749.5,799.5C 750.822,799.67 751.989,799.337 753,798.5C 753.182,795.774 753.682,793.107 754.5,790.5C 756.063,789.055 757.396,787.389 758.5,785.5C 760.567,787.956 762.401,790.622 764,793.5C 765.11,795.037 766.61,795.703 768.5,795.5C 768.372,793.345 768.872,791.345 770,789.5C 773.635,785.679 777.135,781.846 780.5,778C 782.5,777.333 784.5,777.333 786.5,778C 784.961,782.217 785.961,785.717 789.5,788.5C 794.401,784.421 799.734,783.588 805.5,786C 797.257,793.783 793.924,803.283 795.5,814.5C 799.34,812.512 802.674,809.346 805.5,805C 808.167,804.333 810.833,804.333 813.5,805C 809.762,806.399 808.096,809.066 808.5,813C 808.87,819.785 811.37,825.618 816,830.5C 817.254,827.024 817.921,823.358 818,819.5C 819.419,816.704 821.585,814.704 824.5,813.5C 826.327,818.49 828.16,823.49 830,828.5C 838.844,840.19 845.011,853.19 848.5,867.5C 850.84,862.496 853.506,857.496 856.5,852.5C 860.088,865.719 858.422,878.219 851.5,890C 851.388,891.662 852.054,892.829 853.5,893.5C 854.981,892.52 856.315,891.353 857.5,890C 861.191,889.949 861.358,891.116 858,893.5C 859.121,903.612 854.954,910.278 845.5,913.5C 848.36,915.407 851.193,917.407 854,919.5C 854.706,921.971 854.373,924.305 853,926.5C 850.03,928.401 846.864,929.901 843.5,931C 837.141,931.169 830.807,931.669 824.5,932.5C 826.984,935.484 829.65,938.318 832.5,941C 826.568,940.023 820.568,939.023 814.5,938C 812.295,934.793 809.295,932.793 805.5,932C 803.607,929.697 801.607,927.53 799.5,925.5C 797.92,930.029 798.587,934.196 801.5,938C 798.833,938.667 796.167,938.667 793.5,938C 788.781,934.403 784.614,930.237 781,925.5C 774.333,916.167 767.667,906.833 761,897.5C 758.948,895.942 756.781,894.608 754.5,893.5 Z"/></g>
<g><path style="opacity:1" fill="#12161a" d="M 753.5,895.5 C 753.062,895.565 752.728,895.399 752.5,895C 753.416,894.722 754.082,894.222 754.5,893.5C 756.781,894.608 758.948,895.942 761,897.5C 767.667,906.833 774.333,916.167 781,925.5C 784.614,930.237 788.781,934.403 793.5,938C 796.167,938.667 798.833,938.667 801.5,938C 798.587,934.196 797.92,930.029 799.5,925.5C 801.607,927.53 803.607,929.697 805.5,932C 809.295,932.793 812.295,934.793 814.5,938C 820.568,939.023 826.568,940.023 832.5,941C 829.65,938.318 826.984,935.484 824.5,932.5C 830.807,931.669 837.141,931.169 843.5,931C 846.864,929.901 850.03,928.401 853,926.5C 854.373,924.305 854.706,921.971 854,919.5C 851.193,917.407 848.36,915.407 845.5,913.5C 854.954,910.278 859.121,903.612 858,893.5C 861.358,891.116 861.191,889.949 857.5,890C 856.315,891.353 854.981,892.52 853.5,893.5C 852.054,892.829 851.388,891.662 851.5,890C 858.422,878.219 860.088,865.719 856.5,852.5C 853.506,857.496 850.84,862.496 848.5,867.5C 845.011,853.19 838.844,840.19 830,828.5C 828.16,823.49 826.327,818.49 824.5,813.5C 821.585,814.704 819.419,816.704 818,819.5C 817.921,823.358 817.254,827.024 816,830.5C 811.37,825.618 808.87,819.785 808.5,813C 808.096,809.066 809.762,806.399 813.5,805C 810.833,804.333 808.167,804.333 805.5,805C 802.674,809.346 799.34,812.512 795.5,814.5C 793.924,803.283 797.257,793.783 805.5,786C 799.734,783.588 794.401,784.421 789.5,788.5C 785.961,785.717 784.961,782.217 786.5,778C 784.5,777.333 782.5,777.333 780.5,778C 777.135,781.846 773.635,785.679 770,789.5C 768.872,791.345 768.372,793.345 768.5,795.5C 766.61,795.703 765.11,795.037 764,793.5C 762.401,790.622 760.567,787.956 758.5,785.5C 757.396,787.389 756.063,789.055 754.5,790.5C 753.682,793.107 753.182,795.774 753,798.5C 751.989,799.337 750.822,799.67 749.5,799.5C 749.334,804.511 749.501,809.511 750,814.5C 750.914,816.664 752.081,818.664 753.5,820.5C 753.192,821.308 752.692,821.975 752,822.5C 747.656,820.109 743.156,819.942 738.5,822C 740,823.5 741.5,825 743,826.5C 744.515,830.897 746.182,835.23 748,839.5C 752.965,844.484 758.632,848.484 765,851.5C 764.851,855.016 763.017,857.516 759.5,859C 769.833,859.333 780.167,859.667 790.5,860C 802.753,864.841 809.086,873.841 809.5,887C 810.216,892.851 808.55,897.851 804.5,902C 796.622,904.704 789.289,903.704 782.5,899C 774.796,891.627 766.796,884.627 758.5,878C 751.768,873.654 744.434,871.987 736.5,873C 742.092,878.751 747.092,884.918 751.5,891.5C 750.833,891.5 750.5,891.833 750.5,892.5C 736.484,873.488 718.817,858.821 697.5,848.5C 697.5,847.833 697.5,847.167 697.5,846.5C 710.103,852.936 721.77,860.769 732.5,870C 741.697,869.8 750.363,871.8 758.5,876C 768.088,882.917 777.088,890.584 785.5,899C 791.689,901.886 798.023,902.219 804.5,900C 811.532,883.43 807.199,870.763 791.5,862C 779.833,861.667 768.167,861.333 756.5,861C 755.549,860.282 755.383,859.449 756,858.5C 758.25,857.292 760.417,855.959 762.5,854.5C 763.521,853.998 763.688,853.332 763,852.5C 757.145,849.574 751.812,845.907 747,841.5C 744.861,836.084 742.528,830.751 740,825.5C 737.126,824.468 735.626,822.468 735.5,819.5C 740.234,819.325 744.901,818.658 749.5,817.5C 747.534,811.651 747.034,805.651 748,799.5C 750.834,796.891 752.167,793.558 752,789.5C 754.547,788.527 756.047,786.693 756.5,784C 757.833,783.333 759.167,783.333 760.5,784C 762.276,787.441 764.443,790.608 767,793.5C 767.36,791.392 768.027,789.392 769,787.5C 772.833,783.667 776.667,779.833 780.5,776C 783.554,775.179 786.554,775.345 789.5,776.5C 786.833,779.833 786.833,783.167 789.5,786.5C 795.258,782.064 801.424,781.397 808,784.5C 808.749,785.635 808.583,786.635 807.5,787.5C 803.068,789.435 800.235,792.768 799,797.5C 798.544,802.622 797.877,807.622 797,812.5C 799.463,809.035 802.296,805.869 805.5,803C 808.562,802.259 811.562,802.425 814.5,803.5C 814.833,804 815.167,804.5 815.5,805C 814.303,806.52 812.803,807.687 811,808.5C 809.594,815.141 810.927,821.141 815,826.5C 815.045,818.946 818.545,813.613 825.5,810.5C 828.334,821.523 833.168,831.523 840,840.5C 844.112,847.388 847.112,854.722 849,862.5C 851.231,857.706 853.731,853.039 856.5,848.5C 858.518,850.697 859.685,853.364 860,856.5C 861.749,868.182 859.583,879.015 853.5,889C 853.667,889.5 853.833,890 854,890.5C 857.506,886.569 861.006,886.569 864.5,890.5C 863.086,891.624 861.586,892.624 860,893.5C 860.823,902.689 857.323,909.523 849.5,914C 857.956,918.291 858.623,923.625 851.5,930C 844.135,932.886 836.468,934.22 828.5,934C 831.888,936.531 834.221,939.698 835.5,943.5C 828.24,942.02 820.906,940.854 813.5,940C 812.257,938.846 811.257,937.512 810.5,936C 806.793,935.064 803.626,933.231 801,930.5C 800.8,933.284 801.634,935.784 803.5,938C 803.355,938.772 803.022,939.439 802.5,940C 798.705,940.837 795.039,940.504 791.5,939C 780.142,927.648 770.308,915.148 762,901.5C 759.823,898.477 756.989,896.477 753.5,895.5 Z"/></g>
<g><path style="opacity:1" fill="#151413" d="M 404.5,707.5 C 405.167,708.5 405.833,709.5 406.5,710.5C 407.165,717.143 407.665,723.809 408,730.5C 412.546,737.722 417.879,744.388 424,750.5C 425.725,753.674 427.058,757.007 428,760.5C 428.683,782.236 429.35,803.903 430,825.5C 450.29,821.72 470.456,817.22 490.5,812C 493.859,810.953 496.859,809.453 499.5,807.5C 500.167,807.5 500.5,807.833 500.5,808.5C 486.269,852.86 471.269,896.86 455.5,940.5C 455.5,939.833 455.167,939.5 454.5,939.5C 454.5,938.5 454.5,937.5 454.5,936.5C 451.572,936.435 448.905,935.768 446.5,934.5C 447.791,934.737 448.791,934.404 449.5,933.5C 451.717,934.369 454.05,934.702 456.5,934.5C 463.167,914.167 469.833,893.833 476.5,873.5C 471.187,874.098 465.854,874.431 460.5,874.5C 460.5,873.833 460.5,873.167 460.5,872.5C 466.206,872.829 471.872,872.495 477.5,871.5C 479.242,867.275 480.576,862.941 481.5,858.5C 472.81,859.336 464.144,860.503 455.5,862C 444.134,862.232 432.801,862.732 421.5,863.5C 421.062,863.565 420.728,863.399 420.5,863C 421.737,862.768 422.737,862.268 423.5,861.5C 434.454,860.711 445.454,860.211 456.5,860C 465.405,858.023 474.405,856.856 483.5,856.5C 484.598,850.041 486.598,843.874 489.5,838C 477.135,841.229 464.802,844.896 452.5,849C 442.789,851.073 433.122,853.239 423.5,855.5C 423.5,856.833 423.5,858.167 423.5,859.5C 422.511,854.025 422.178,848.358 422.5,842.5C 423.676,837.167 424.509,831.834 425,826.5C 420.7,823.202 416.7,819.535 413,815.5C 412.667,819.167 412.333,822.833 412,826.5C 410.628,827.91 409.795,829.577 409.5,831.5C 408.662,831.158 408.328,830.492 408.5,829.5C 411.422,825.215 412.089,820.549 410.5,815.5C 403.932,818.65 398.765,816.984 395,810.5C 394.333,805.833 394.333,801.167 395,796.5C 397.25,794.591 399.084,792.425 400.5,790C 397.477,774.985 395.977,759.818 396,744.5C 392.717,738.049 388.884,737.883 384.5,744C 375.922,745.034 372.255,749.534 373.5,757.5C 370.461,752.633 371.461,748.466 376.5,745C 378.935,744.147 381.269,743.147 383.5,742C 380.379,741.274 377.713,739.774 375.5,737.5C 369.445,743.56 363.111,749.226 356.5,754.5C 356.5,753.833 356.167,753.5 355.5,753.5C 361.138,748.033 366.971,742.699 373,737.5C 374.128,735.655 374.628,733.655 374.5,731.5C 375.167,730.833 375.833,730.167 376.5,729.5C 382.842,729.666 389.175,729.5 395.5,729C 396.423,726.959 396.756,724.792 396.5,722.5C 397.167,722.833 397.833,723.167 398.5,723.5C 398.5,724.833 398.5,726.167 398.5,727.5C 400.861,727.674 403.194,728.007 405.5,728.5C 405.705,722.122 405.372,715.789 404.5,709.5C 402.784,709.629 401.117,709.962 399.5,710.5C 398.833,710.5 398.5,710.167 398.5,709.5C 400.297,708.27 402.297,707.604 404.5,707.5 Z"/></g>
<g><path style="opacity:1" fill="#764320" d="M 495.5,811.5 C 496.497,811.47 497.164,811.97 497.5,813C 495.222,820.503 492.555,827.836 489.5,835C 468.305,842.881 446.639,849.048 424.5,853.5C 423.442,843.906 425.442,835.073 430.5,827C 444.443,824.078 458.443,821.411 472.5,819C 480.509,817.163 488.176,814.663 495.5,811.5 Z"/></g>
<g><path style="opacity:1" fill="#e2e2e2" d="M 423.5,861.5 C 422.494,861.062 422.494,860.396 423.5,859.5C 423.5,858.167 423.5,856.833 423.5,855.5C 433.122,853.239 442.789,851.073 452.5,849C 464.802,844.896 477.135,841.229 489.5,838C 486.598,843.874 484.598,850.041 483.5,856.5C 474.405,856.856 465.405,858.023 456.5,860C 445.454,860.211 434.454,860.711 423.5,861.5 Z"/></g>
<g><path style="opacity:1" fill="#13140d" d="M 641.5,726.5 C 673.455,724.229 693.621,738.562 702,769.5C 707.715,803.686 698.548,833.186 674.5,858C 660.294,870.957 643.627,876.291 624.5,874C 605.201,868.702 592.368,856.536 586,837.5C 576.088,796.202 587.588,762.369 620.5,736C 627.332,732.247 634.332,729.08 641.5,726.5 Z"/></g>
<g><path style="opacity:1" fill="#0776b3" d="M 651.5,817.5 C 664.833,821.833 678.167,826.167 691.5,830.5C 683.294,849.204 669.627,862.371 650.5,870C 644.951,871.677 639.285,872.51 633.5,872.5C 639.5,854.167 645.5,835.833 651.5,817.5 Z"/></g>
<g><path style="opacity:1" fill="#0776b4" d="M 585.5,794.5 C 599.438,799.368 613.438,804.035 627.5,808.5C 621.971,827.421 615.637,846.088 608.5,864.5C 596.767,856.051 589.267,844.718 586,830.5C 584.261,818.498 584.095,806.498 585.5,794.5 Z"/></g>
<g><path style="opacity:1" fill="#0776b3" d="M 679.5,737.5 C 695.278,750.735 702.611,767.735 701.5,788.5C 701.712,794.96 701.045,801.293 699.5,807.5C 686.871,802.901 674.205,798.401 661.5,794C 661.043,793.586 660.709,793.086 660.5,792.5C 667.04,774.213 673.373,755.88 679.5,737.5 Z"/></g>
<g><path style="opacity:1" fill="#eddf05" d="M 657.5,728.5 C 663.178,728.753 668.511,730.253 673.5,733C 675.613,733.872 676.946,735.372 677.5,737.5C 670.799,756.433 664.633,775.433 659,794.5C 672.181,800.061 685.681,804.727 699.5,808.5C 698.552,815.958 696.219,822.958 692.5,829.5C 678.963,824.932 665.463,820.265 652,815.5C 651.5,815.833 651,816.167 650.5,816.5C 643.76,835.053 637.427,853.72 631.5,872.5C 623.573,872.746 616.573,870.413 610.5,865.5C 617.375,846.206 624.042,826.873 630.5,807.5C 615.988,803.247 601.655,798.413 587.5,793C 586.919,792.107 586.585,791.107 586.5,790C 587.934,784.366 589.767,778.866 592,773.5C 592.561,772.978 593.228,772.645 594,772.5C 608.452,777.827 622.952,782.66 637.5,787C 644.59,767.652 651.256,748.152 657.5,728.5 Z"/></g>
<g><path style="opacity:1" fill="#e6e6e6" d="M 697.5,848.5 C 718.817,858.821 736.484,873.488 750.5,892.5C 754.013,902.231 756.179,912.231 757,922.5C 744.119,929.898 730.286,932.398 715.5,930C 716.736,901.702 708.07,877.036 689.5,856C 691.667,853.167 693.833,850.333 696,847.5C 696.383,848.056 696.883,848.389 697.5,848.5 Z"/></g>
<g><path style="opacity:1" fill="#744120" d="M 460.5,872.5 C 448.829,872.667 437.162,872.5 425.5,872C 422.448,871.118 420.114,869.284 418.5,866.5C 419.34,865.265 420.34,864.265 421.5,863.5C 432.801,862.732 444.134,862.232 455.5,862C 464.144,860.503 472.81,859.336 481.5,858.5C 480.576,862.941 479.242,867.275 477.5,871.5C 471.872,872.495 466.206,872.829 460.5,872.5 Z"/></g>
<g><path style="opacity:1" fill="#dddddd" d="M 587.5,865.5 C 582.451,869.921 578.617,875.255 576,881.5C 574.13,883.219 571.963,884.219 569.5,884.5C 569.168,879.448 570.002,874.448 572,869.5C 576.333,866.5 580.667,863.5 585,860.5C 586.883,861.653 587.716,863.319 587.5,865.5 Z"/></g>
<g><path style="opacity:1" fill="#e5e5e5" d="M 449.5,933.5 C 445.055,932.805 440.722,931.638 436.5,930C 424.729,924.448 412.729,919.448 400.5,915C 396.848,914.111 393.182,913.778 389.5,914C 373.809,925.556 370.143,940.056 378.5,957.5C 374.001,963.398 374.501,968.731 380,973.5C 380.667,974.833 380.667,976.167 380,977.5C 374.91,984.763 368.076,989.43 359.5,991.5C 359.663,989.143 359.497,986.81 359,984.5C 355.615,978.398 352.782,972.065 350.5,965.5C 350.719,964.062 351.219,962.729 352,961.5C 353.955,960.547 355.622,959.213 357,957.5C 357.168,952.499 358.501,947.832 361,943.5C 363.38,931.949 365.047,920.283 366,908.5C 367.753,901.75 369.587,895.084 371.5,888.5C 388.331,887.681 404.998,888.847 421.5,892C 431.167,892.667 440.833,892.667 450.5,892C 457.845,891.005 463.511,887.505 467.5,881.5C 467.167,881.167 466.833,880.833 466.5,880.5C 463.382,884.561 459.382,887.394 454.5,889C 447.574,890.339 440.574,890.839 433.5,890.5C 432.808,884.588 430.474,879.422 426.5,875C 437.828,874.5 449.162,874.333 460.5,874.5C 465.854,874.431 471.187,874.098 476.5,873.5C 469.833,893.833 463.167,914.167 456.5,934.5C 454.05,934.702 451.717,934.369 449.5,933.5 Z"/></g>
<g><path style="opacity:1" fill="#6a3c1d" d="M 566.5,885.5 C 567.5,885.5 568.5,885.5 569.5,885.5C 569.198,888.373 568.531,891.039 567.5,893.5C 565.355,893.262 563.688,892.262 562.5,890.5C 563.857,888.814 565.19,887.148 566.5,885.5 Z"/></g>
<g><path style="opacity:1" fill="#e4e4e4" d="M 567.5,895.5 C 568.434,896.772 569.101,898.272 569.5,900C 563.09,920.691 560.757,941.857 562.5,963.5C 556.37,963.635 550.37,962.801 544.5,961C 540.658,960.279 537.324,958.613 534.5,956C 543.049,945.081 550.215,933.248 556,920.5C 558.747,912.068 560.08,903.401 560,894.5C 560.561,893.978 561.228,893.645 562,893.5C 563.8,894.32 565.634,894.986 567.5,895.5 Z"/></g>
<g><path style="opacity:1" fill="#e6e6e6" d="M 759.5,973.5 C 756.046,981.754 752.546,990.087 749,998.5C 747.417,1009.17 749.75,1018.83 756,1027.5C 764.667,1036.83 773.333,1046.17 782,1055.5C 783.775,1060.56 783.442,1065.56 781,1070.5C 776.568,1077.26 772.568,1084.26 769,1091.5C 768.667,1101.5 768.333,1111.5 768,1121.5C 764.646,1134.92 760.979,1148.25 757,1161.5C 753.209,1170.9 746.209,1175.23 736,1174.5C 730.149,1175.22 725.149,1173.55 721,1169.5C 720.333,1166.5 720.333,1163.5 721,1160.5C 731.88,1138.74 742.213,1116.74 752,1094.5C 754.758,1086.9 755.092,1079.23 753,1071.5C 748.087,1064.86 742.587,1058.7 736.5,1053C 722.697,1041.93 708.363,1031.6 693.5,1022C 685.621,1015.08 680.121,1006.58 677,996.5C 673.358,986.596 670.025,976.596 667,966.5C 662.957,958.461 657.457,951.628 650.5,946C 646.877,942.995 642.877,940.995 638.5,940C 650.027,946.027 658.694,954.86 664.5,966.5C 659.593,969.736 654.093,971.07 648,970.5C 640.723,970.779 633.89,969.279 627.5,966C 621.509,965.501 615.509,965.334 609.5,965.5C 597.833,965.5 586.167,965.5 574.5,965.5C 574.483,955.324 574.15,945.158 573.5,935C 573.645,924.965 575.145,915.132 578,905.5C 580.434,904.368 582.934,903.368 585.5,902.5C 610.767,911.311 635.767,920.811 660.5,931C 661.126,931.75 661.626,932.584 662,933.5C 662.336,940.533 663.002,947.533 664,954.5C 666.617,958.476 669.284,958.476 672,954.5C 672.333,948.833 672.667,943.167 673,937.5C 673.725,936.941 674.558,936.608 675.5,936.5C 684.501,938.502 693.501,940.335 702.5,942C 703.025,942.692 703.692,943.192 704.5,943.5C 705.868,949.974 707.702,956.307 710,962.5C 712.251,966.126 715.418,967.293 719.5,966C 722.064,964.938 723.731,963.104 724.5,960.5C 722.897,957.72 721.063,955.054 719,952.5C 718.39,949.173 717.89,945.839 717.5,942.5C 731.935,943.455 745.768,941.122 759,935.5C 760.774,948.093 760.94,960.76 759.5,973.5 Z"/></g>
<g><path style="opacity:1" fill="#181613" d="M 711.5,778.5 C 712.492,785.982 712.825,793.648 712.5,801.5C 710.096,817.378 705.096,832.378 697.5,846.5C 697.5,847.167 697.5,847.833 697.5,848.5C 696.883,848.389 696.383,848.056 696,847.5C 693.833,850.333 691.667,853.167 689.5,856C 708.07,877.036 716.736,901.702 715.5,930C 730.286,932.398 744.119,929.898 757,922.5C 756.179,912.231 754.013,902.231 750.5,892.5C 750.5,891.833 750.833,891.5 751.5,891.5C 751.973,892.906 752.973,893.573 754.5,893.5C 754.082,894.222 753.416,894.722 752.5,895C 752.728,895.399 753.062,895.565 753.5,895.5C 761.335,921.311 763.668,947.644 760.5,974.5C 759.833,974.5 759.5,974.167 759.5,973.5C 760.94,960.76 760.774,948.093 759,935.5C 745.768,941.122 731.935,943.455 717.5,942.5C 717.89,945.839 718.39,949.173 719,952.5C 721.063,955.054 722.897,957.72 724.5,960.5C 723.731,963.104 722.064,964.938 719.5,966C 715.418,967.293 712.251,966.126 710,962.5C 707.702,956.307 705.868,949.974 704.5,943.5C 703.692,943.192 703.025,942.692 702.5,942C 693.501,940.335 684.501,938.502 675.5,936.5C 674.558,936.608 673.725,936.941 673,937.5C 672.667,943.167 672.333,948.833 672,954.5C 669.284,958.476 666.617,958.476 664,954.5C 663.002,947.533 662.336,940.533 662,933.5C 661.626,932.584 661.126,931.75 660.5,931C 635.767,920.811 610.767,911.311 585.5,902.5C 582.934,903.368 580.434,904.368 578,905.5C 575.145,915.132 573.645,924.965 573.5,935C 574.15,945.158 574.483,955.324 574.5,965.5C 586.167,965.5 597.833,965.5 609.5,965.5C 599.347,966.494 589.014,966.828 578.5,966.5C 572.131,966.653 565.797,966.32 559.5,965.5C 560.5,964.833 561.5,964.167 562.5,963.5C 560.757,941.857 563.09,920.691 569.5,900C 569.101,898.272 568.434,896.772 567.5,895.5C 567.5,894.833 567.5,894.167 567.5,893.5C 568.531,891.039 569.198,888.373 569.5,885.5C 568.5,885.5 567.5,885.5 566.5,885.5C 566.5,884.833 566.167,884.5 565.5,884.5C 565.833,883.833 566.167,883.167 566.5,882.5C 567.222,883.551 568.222,884.218 569.5,884.5C 571.963,884.219 574.13,883.219 576,881.5C 578.617,875.255 582.451,869.921 587.5,865.5C 588.492,865.328 589.158,865.662 589.5,866.5C 584.915,870.592 581.248,875.425 578.5,881C 579.697,882.52 581.197,883.687 583,884.5C 586.688,879.782 589.855,874.782 592.5,869.5C 592.5,868.833 592.5,868.167 592.5,867.5C 597.727,872.221 603.393,876.388 609.5,880C 631.261,888.148 651.594,885.481 670.5,872C 700.105,847.945 713.772,816.779 711.5,778.5 Z"/></g>
<g><path style="opacity:1" fill="#939393" d="M 665.5,918.5 C 674.083,919.387 676.916,924.054 674,932.5C 670.05,937.906 666.383,937.573 663,931.5C 662.12,926.821 662.953,922.488 665.5,918.5 Z"/></g>
<g><path style="opacity:1" fill="#703f1e" d="M 570.5,901.5 C 572.315,902.63 574.315,903.296 576.5,903.5C 575.781,908.593 574.614,913.593 573,918.5C 572.5,933.83 572.333,949.163 572.5,964.5C 569.833,964.5 567.167,964.5 564.5,964.5C 563.041,943.131 565.041,922.131 570.5,901.5 Z"/></g>
<g><path style="opacity:1" fill="#74411f" d="M 585.5,892.5 C 611.218,900.85 636.551,910.183 661.5,920.5C 661.167,923.167 660.833,925.833 660.5,928.5C 637.062,919.186 613.396,910.352 589.5,902C 588.5,901.5 587.5,901 586.5,900.5C 585.52,897.914 585.187,895.247 585.5,892.5 Z"/></g>
<g><path style="opacity:1" fill="#929292" d="M 575.5,883.5 C 582.42,884.589 585.253,888.589 584,895.5C 583.999,901.509 581.166,903.676 575.5,902C 570.574,899.647 568.74,895.814 570,890.5C 570.967,887.379 572.8,885.046 575.5,883.5 Z"/></g>
<g><path style="opacity:1" fill="#e4e4e4" d="M 593.5,872.5 C 594.552,872.351 595.552,872.517 596.5,873C 611.978,886.615 629.644,890.282 649.5,884C 656.835,882.165 663.501,878.999 669.5,874.5C 671.227,888.802 669.893,902.802 665.5,916.5C 664.281,917.263 663.281,918.263 662.5,919.5C 637.851,909.116 612.851,899.616 587.5,891C 586.128,889.758 585.128,888.258 584.5,886.5C 587.012,881.465 590.012,876.799 593.5,872.5 Z"/></g>
<g><path style="opacity:1" fill="#71401f" d="M 676.5,868.5 C 678.045,869.23 678.878,870.563 679,872.5C 680.617,888.5 679.117,904.167 674.5,919.5C 672.677,918.253 670.677,917.586 668.5,917.5C 670.807,903.944 671.974,890.277 672,876.5C 672.738,873.352 674.238,870.685 676.5,868.5 Z"/></g>
<g><path style="opacity:1" fill="#71401f" d="M 589.5,866.5 C 590.728,867.306 591.728,868.306 592.5,869.5C 589.855,874.782 586.688,879.782 583,884.5C 581.197,883.687 579.697,882.52 578.5,881C 581.248,875.425 584.915,870.592 589.5,866.5 Z"/></g>
<g><path style="opacity:1" fill="#e3e3e3" d="M 681.5,864.5 C 685.454,866.62 688.621,869.62 691,873.5C 700.006,890.675 703.839,908.842 702.5,928C 693.686,928.947 685.186,927.78 677,924.5C 678.32,914.585 679.654,904.585 681,894.5C 681.104,884.419 681.271,874.419 681.5,864.5 Z"/></g>
<g><path style="opacity:1" fill="#72401f" d="M 687.5,858.5 C 700.512,870.515 708.346,885.515 711,903.5C 712.205,911.119 712.705,918.786 712.5,926.5C 709.881,926.768 707.381,926.435 705,925.5C 705.364,906.342 701.031,888.342 692,871.5C 689.167,868.667 686.333,865.833 683.5,863C 685.041,861.629 686.375,860.129 687.5,858.5 Z"/></g>
<g><path style="opacity:1" fill="#754220" d="M 756.5,924.5 C 757.117,924.611 757.617,924.944 758,925.5C 758.821,928.554 758.655,931.554 757.5,934.5C 744.667,939.572 731.334,941.572 717.5,940.5C 716.908,937.873 716.575,935.206 716.5,932.5C 730.851,934.239 744.185,931.573 756.5,924.5 Z"/></g>
<g><path style="opacity:1" fill="#703f1e" d="M 676.5,926.5 C 684.94,929.013 693.607,930.346 702.5,930.5C 702.5,933.5 702.5,936.5 702.5,939.5C 694.057,938.648 685.724,937.148 677.5,935C 676.484,934.481 675.818,933.647 675.5,932.5C 676.156,930.547 676.489,928.547 676.5,926.5 Z"/></g>
<g><path style="opacity:1" fill="#949494" d="M 704.5,928.5 C 707.448,928.223 710.281,928.556 713,929.5C 714.542,934.045 715.376,938.711 715.5,943.5C 711.743,943.929 708.243,943.263 705,941.5C 704.501,937.179 704.334,932.846 704.5,928.5 Z"/></g>
<g><path style="opacity:1" fill="#6e3e1e" d="M 664.5,937.5 C 666.435,938.15 668.435,938.483 670.5,938.5C 670.666,943.844 670.499,949.177 670,954.5C 666.938,956.13 665.271,955.13 665,951.5C 664.501,946.845 664.334,942.179 664.5,937.5 Z"/></g>
<g><path style="opacity:1" fill="#744220" d="M 707.5,944.5 C 710.391,945.403 713.391,945.736 716.5,945.5C 716.021,951.536 718.021,956.536 722.5,960.5C 720.192,964.669 716.858,965.502 712.5,963C 709.667,957.171 708.001,951.004 707.5,944.5 Z"/></g>
<g><path style="opacity:1" fill="#14171a" d="M 422.5,842.5 C 422.178,848.358 422.511,854.025 423.5,859.5C 422.494,860.396 422.494,861.062 423.5,861.5C 422.737,862.268 421.737,862.768 420.5,863C 420.728,863.399 421.062,863.565 421.5,863.5C 420.34,864.265 419.34,865.265 418.5,866.5C 420.114,869.284 422.448,871.118 425.5,872C 437.162,872.5 448.829,872.667 460.5,872.5C 460.5,873.167 460.5,873.833 460.5,874.5C 449.162,874.333 437.828,874.5 426.5,875C 430.474,879.422 432.808,884.588 433.5,890.5C 440.574,890.839 447.574,890.339 454.5,889C 459.382,887.394 463.382,884.561 466.5,880.5C 466.833,880.833 467.167,881.167 467.5,881.5C 463.511,887.505 457.845,891.005 450.5,892C 440.833,892.667 431.167,892.667 421.5,892C 404.998,888.847 388.331,887.681 371.5,888.5C 369.587,895.084 367.753,901.75 366,908.5C 365.047,920.283 363.38,931.949 361,943.5C 358.501,947.832 357.168,952.499 357,957.5C 355.622,959.213 353.955,960.547 352,961.5C 351.219,962.729 350.719,964.062 350.5,965.5C 352.782,972.065 355.615,978.398 359,984.5C 359.497,986.81 359.663,989.143 359.5,991.5C 368.076,989.43 374.91,984.763 380,977.5C 380.667,976.167 380.667,974.833 380,973.5C 374.501,968.731 374.001,963.398 378.5,957.5C 370.143,940.056 373.809,925.556 389.5,914C 393.182,913.778 396.848,914.111 400.5,915C 412.729,919.448 424.729,924.448 436.5,930C 440.722,931.638 445.055,932.805 449.5,933.5C 448.791,934.404 447.791,934.737 446.5,934.5C 443.157,933.776 439.824,932.943 436.5,932C 426.5,927.667 416.5,923.333 406.5,919C 400.972,916.96 395.305,915.96 389.5,916C 379.372,923.75 374.872,933.917 376,946.5C 379.929,952.761 380.429,959.261 377.5,966C 380.839,971.354 385.005,976.187 390,980.5C 393.212,985.133 393.212,989.8 390,994.5C 386.333,1000.5 382.667,1006.5 379,1012.5C 376.683,1015.1 373.85,1015.93 370.5,1015C 360.955,1008.4 356.789,999.231 358,987.5C 354.413,980.161 351.246,972.661 348.5,965C 350.184,961.301 352.684,958.135 356,955.5C 359.758,938.7 362.758,921.7 365,904.5C 366.227,899.72 367.727,895.054 369.5,890.5C 368.399,884.899 365.066,882.733 359.5,884C 353.548,890.74 347.715,897.574 342,904.5C 340.994,906.534 340.494,908.7 340.5,911C 341.499,914.805 341.999,918.638 342,922.5C 339.766,924.53 337.933,926.863 336.5,929.5C 338.992,935.166 342.492,940.166 347,944.5C 347.667,946.167 347.667,947.833 347,949.5C 341.221,961.612 332.388,970.779 320.5,977C 318.866,977.494 317.199,977.66 315.5,977.5C 313.871,968.95 313.037,960.284 313,951.5C 309.498,940.978 308.832,930.311 311,919.5C 314.367,915.797 318.034,912.464 322,909.5C 329.113,894.826 335.447,879.826 341,864.5C 347.245,857.476 355.078,854.476 364.5,855.5C 370.528,855.67 376.528,856.17 382.5,857C 393.528,859.905 404.528,862.572 415.5,865C 416.763,862.614 418.597,860.781 421,859.5C 421.173,853.652 421.673,847.985 422.5,842.5 Z"/></g>
<g><path style="opacity:1" fill="#e3e3e3" d="M 339.5,939.5 C 346.403,943.796 347.236,949.13 342,955.5C 336.081,963.421 328.914,969.921 320.5,975C 319.207,975.49 317.873,975.657 316.5,975.5C 315.635,967.534 315.302,959.534 315.5,951.5C 325.506,951.491 333.506,947.491 339.5,939.5 Z"/></g>
<g><path style="opacity:1" fill="#e5e5e5" d="M 355.5,857.5 C 364.884,857.184 374.218,857.684 383.5,859C 394.209,861.791 404.876,864.791 415.5,868C 424.206,873.19 429.539,880.69 431.5,890.5C 422.455,889.792 413.455,888.625 404.5,887C 394.651,886.287 384.818,886.454 375,887.5C 373.5,887.167 372,886.833 370.5,886.5C 367.553,882.349 363.553,880.849 358.5,882C 351.62,889.879 345.12,898.045 339,906.5C 338.307,911.122 338.807,915.622 340.5,920C 338.721,923.285 336.721,926.452 334.5,929.5C 335.75,932.635 336.917,935.635 338,938.5C 332.249,946.795 324.415,950.295 314.5,949C 312.872,945.397 312.038,941.563 312,937.5C 310.859,930.916 311.526,924.583 314,918.5C 317.632,915.87 320.965,912.87 324,909.5C 330.585,895.41 336.585,881.077 342,866.5C 345.528,861.834 350.028,858.834 355.5,857.5 Z"/></g>
<g><path style="opacity:1" fill="#e4e4e4" d="M 382.5,976.5 C 388.218,979.397 390.718,984.064 390,990.5C 385.955,998.538 381.122,1006.04 375.5,1013C 373.833,1013.67 372.167,1013.67 370.5,1013C 363.529,1007.89 360.196,1001.06 360.5,992.5C 370.262,990.609 377.595,985.276 382.5,976.5 Z"/></g>
<g><path style="opacity:1" fill="#16181a" d="M 712.5,801.5 C 712.825,793.648 712.492,785.982 711.5,778.5C 711.38,773.063 710.546,767.73 709,762.5C 696.462,723.818 670.629,709.651 631.5,720C 599.599,736.595 580.766,762.761 575,798.5C 570.999,824.167 576.833,847.167 592.5,867.5C 592.5,868.167 592.5,868.833 592.5,869.5C 591.728,868.306 590.728,867.306 589.5,866.5C 589.158,865.662 588.492,865.328 587.5,865.5C 587.716,863.319 586.883,861.653 585,860.5C 580.667,863.5 576.333,866.5 572,869.5C 570.002,874.448 569.168,879.448 569.5,884.5C 568.222,884.218 567.222,883.551 566.5,882.5C 569.792,876.473 569.125,870.973 564.5,866C 561.833,865.333 559.167,865.333 556.5,866C 553.963,868.906 551.796,872.073 550,875.5C 548.851,881.796 550.684,886.963 555.5,891C 556.833,891.667 558.167,891.667 559.5,891C 561.734,888.937 563.734,886.771 565.5,884.5C 566.167,884.5 566.5,884.833 566.5,885.5C 565.19,887.148 563.857,888.814 562.5,890.5C 563.688,892.262 565.355,893.262 567.5,893.5C 567.5,894.167 567.5,894.833 567.5,895.5C 565.634,894.986 563.8,894.32 562,893.5C 561.228,893.645 560.561,893.978 560,894.5C 560.08,903.401 558.747,912.068 556,920.5C 550.215,933.248 543.049,945.081 534.5,956C 537.324,958.613 540.658,960.279 544.5,961C 550.37,962.801 556.37,963.635 562.5,963.5C 561.5,964.167 560.5,964.833 559.5,965.5C 556.786,965.25 554.119,965.083 551.5,965C 552.919,968.163 552.585,971.163 550.5,974C 546.671,973.925 543.337,972.425 540.5,969.5C 536.691,972.142 533.024,974.975 529.5,978C 519.426,981.692 509.759,980.692 500.5,975C 498,974.833 495.5,974.667 493,974.5C 483.222,975.934 473.389,976.601 463.5,976.5C 466.134,972.345 469.467,968.512 473.5,965C 485.023,960.27 496.69,955.937 508.5,952C 501.167,948.667 493.833,945.333 486.5,942C 480.968,940.525 475.468,940.359 470,941.5C 463.636,959.592 457.469,977.759 451.5,996C 455.122,1001.16 455.955,1006.66 454,1012.5C 443.333,1027.17 432.667,1041.83 422,1056.5C 421.633,1044.79 421.966,1033.12 423,1021.5C 421.692,1024.73 420.692,1028.06 420,1031.5C 415.296,1034.69 410.962,1038.36 407,1042.5C 401.975,1052.43 402.808,1061.93 409.5,1071C 415.088,1074.07 420.755,1074.24 426.5,1071.5C 427.426,1068.96 428.426,1066.46 429.5,1064C 430.448,1063.52 431.448,1063.35 432.5,1063.5C 432.338,1061.47 432.505,1059.47 433,1057.5C 435.333,1056.83 437.667,1056.17 440,1055.5C 440,1052.83 440,1050.17 440,1047.5C 444.155,1044.55 444.655,1040.88 441.5,1036.5C 441.833,1035.5 442.5,1034.83 443.5,1034.5C 448.229,1035.81 452.896,1037.31 457.5,1039C 458.333,1039.83 459.167,1040.67 460,1041.5C 461.534,1045.71 461.867,1050.04 461,1054.5C 454.031,1062.47 446.698,1070.14 439,1077.5C 437.46,1081.42 435.293,1084.92 432.5,1088C 425.256,1090.34 418.09,1092.84 411,1095.5C 408.515,1101.73 410.015,1106.89 415.5,1111C 419.956,1111.87 424.289,1111.53 428.5,1110C 433.624,1103.87 439.624,1098.87 446.5,1095C 453.753,1092.95 461.087,1091.28 468.5,1090C 474.288,1084.28 480.621,1079.28 487.5,1075C 501.886,1069.31 515.553,1062.31 528.5,1054C 534.072,1048.6 539.405,1043.1 544.5,1037.5C 540.76,1028.62 534.093,1025.12 524.5,1027C 521.751,1028.12 519.251,1029.62 517,1031.5C 515.646,1038.57 513.312,1045.23 510,1051.5C 504.699,1054.36 499.199,1056.7 493.5,1058.5C 495.078,1053.72 495.911,1048.72 496,1043.5C 501.112,1039.72 505.612,1035.22 509.5,1030C 504.116,1028.39 499.783,1029.72 496.5,1034C 492.861,1035.32 489.194,1036.49 485.5,1037.5C 485.318,1035.41 485.652,1033.41 486.5,1031.5C 481.543,1030.9 476.876,1029.4 472.5,1027C 471.663,1025.99 471.33,1024.82 471.5,1023.5C 475.182,1023.67 478.848,1023.5 482.5,1023C 485.206,1022.4 487.206,1020.9 488.5,1018.5C 489.646,1019.14 490.646,1019.98 491.5,1021C 507.832,1023.27 508.498,1020.6 493.5,1013C 489.219,1012.79 485.052,1012.62 481,1012.5C 480.405,1011.1 480.572,1009.77 481.5,1008.5C 476.769,1003.79 475.269,998.126 477,991.5C 478,990.167 479,990.167 480,991.5C 479.959,996.794 482.459,999.294 487.5,999C 488.337,997.989 488.67,996.822 488.5,995.5C 490.144,995.286 491.644,995.62 493,996.5C 492.675,1001.16 494.508,1004.66 498.5,1007C 502.5,1008.67 506.5,1010.33 510.5,1012C 513.882,1012.82 517.216,1012.66 520.5,1011.5C 522.875,1006.61 525.542,1001.94 528.5,997.5C 526.833,995.5 525.167,993.5 523.5,991.5C 524.167,991.167 524.833,990.833 525.5,990.5C 528.668,992.266 532.001,993.099 535.5,993C 538.887,990.815 541.554,987.981 543.5,984.5C 544.325,983.614 545.325,983.281 546.5,983.5C 546.664,986.187 546.497,988.854 546,991.5C 544.455,993.209 543.622,995.209 543.5,997.5C 544.407,999.94 545.24,1002.27 546,1004.5C 542.2,1005.2 538.367,1005.87 534.5,1006.5C 533.359,1008.42 533.192,1010.42 534,1012.5C 537.049,1014.96 540.549,1016.46 544.5,1017C 551.744,1018.65 559.077,1019.65 566.5,1020C 570.264,1026.1 570.097,1032.27 566,1038.5C 559.732,1043.21 555.899,1049.38 554.5,1057C 554.585,1058.11 554.919,1059.11 555.5,1060C 566.833,1059.57 577.833,1061.24 588.5,1065C 590.455,1065.95 592.122,1067.29 593.5,1069C 596.167,1069.67 598.833,1069.67 601.5,1069C 605.993,1066.92 610.326,1064.59 614.5,1062C 627.162,1062.18 639.828,1062.18 652.5,1062C 658.41,1061 660.244,1057.84 658,1052.5C 652.199,1045.7 646.032,1039.2 639.5,1033C 632.424,1031.64 625.757,1032.64 619.5,1036C 612.617,1040.55 606.783,1046.05 602,1052.5C 599.413,1050.67 597.913,1048.17 597.5,1045C 594.5,1044.67 591.5,1044.33 588.5,1044C 585.924,1043.22 583.924,1041.72 582.5,1039.5C 590.558,1040.2 596.558,1037.2 600.5,1030.5C 602.111,1031.32 602.778,1032.65 602.5,1034.5C 604.199,1034.66 605.866,1034.49 607.5,1034C 610.167,1031.33 612.833,1028.67 615.5,1026C 609.167,1025.33 602.833,1025.33 596.5,1026C 594.231,1028.02 591.564,1028.86 588.5,1028.5C 588.383,1026.52 589.05,1024.85 590.5,1023.5C 586.344,1019.19 583.844,1014.19 583,1008.5C 584.049,1007.48 585.216,1007.32 586.5,1008C 588.721,1011.94 592.054,1014.11 596.5,1014.5C 596.343,1013.13 596.51,1011.79 597,1010.5C 597.718,1009.55 598.551,1009.38 599.5,1010C 600.444,1012.72 600.777,1015.55 600.5,1018.5C 606.842,1018.67 613.175,1018.5 619.5,1018C 613.201,1013.27 606.368,1009.43 599,1006.5C 597.496,1002.96 597.163,999.295 598,995.5C 600.239,994.131 602.073,994.631 603.5,997C 605.833,997.333 608.167,997.667 610.5,998C 611.251,1001.77 613.251,1004.77 616.5,1007C 623.361,1011.01 630.695,1013.51 638.5,1014.5C 641.295,1014.55 643.961,1014.05 646.5,1013C 643.602,1009.1 641.102,1004.93 639,1000.5C 636.282,991.239 633.949,981.906 632,972.5C 631.215,970.714 630.049,969.214 628.5,968C 611.662,967.832 594.995,967.332 578.5,966.5C 589.014,966.828 599.347,966.494 609.5,965.5C 615.509,965.334 621.509,965.501 627.5,966C 633.89,969.279 640.723,970.779 648,970.5C 654.093,971.07 659.593,969.736 664.5,966.5C 658.694,954.86 650.027,946.027 638.5,940C 642.877,940.995 646.877,942.995 650.5,946C 657.457,951.628 662.957,958.461 667,966.5C 670.025,976.596 673.358,986.596 677,996.5C 680.121,1006.58 685.621,1015.08 693.5,1022C 708.363,1031.6 722.697,1041.93 736.5,1053C 742.587,1058.7 748.087,1064.86 753,1071.5C 755.092,1079.23 754.758,1086.9 752,1094.5C 742.213,1116.74 731.88,1138.74 721,1160.5C 720.333,1163.5 720.333,1166.5 721,1169.5C 725.149,1173.55 730.149,1175.22 736,1174.5C 746.209,1175.23 753.209,1170.9 757,1161.5C 760.979,1148.25 764.646,1134.92 768,1121.5C 768.333,1111.5 768.667,1101.5 769,1091.5C 772.568,1084.26 776.568,1077.26 781,1070.5C 783.442,1065.56 783.775,1060.56 782,1055.5C 773.333,1046.17 764.667,1036.83 756,1027.5C 749.75,1018.83 747.417,1009.17 749,998.5C 752.546,990.087 756.046,981.754 759.5,973.5C 759.5,974.167 759.833,974.5 760.5,974.5C 757.626,982.587 754.459,990.587 751,998.5C 748.821,1010.98 752.154,1021.65 761,1030.5C 769.403,1038.23 777.07,1046.57 784,1055.5C 784.826,1060.59 784.492,1065.59 783,1070.5C 778.568,1077.26 774.568,1084.26 771,1091.5C 770.5,1101.49 770.334,1111.49 770.5,1121.5C 779.661,1121.17 787.494,1117.84 794,1111.5C 791.921,1077.57 798.921,1045.57 815,1015.5C 819.043,1009.25 823.21,1003.08 827.5,997C 820.805,996.335 814.138,996.502 807.5,997.5C 807.372,995.345 807.872,993.345 809,991.5C 823.301,970.881 842.468,956.714 866.5,949C 873.125,947.336 879.792,947.169 886.5,948.5C 876.292,958.882 867.792,970.549 861,983.5C 856.456,997.824 854.289,1012.49 854.5,1027.5C 853.726,1028.71 852.893,1028.71 852,1027.5C 847.69,1019.24 845.024,1010.58 844,1001.5C 840.501,1005.67 837.834,1010.34 836,1015.5C 830.903,1028.46 827.236,1041.79 825,1055.5C 824.403,1069.51 824.57,1083.51 825.5,1097.5C 826.066,1125.88 813.4,1145.72 787.5,1157C 779.04,1160.26 770.373,1161.09 761.5,1159.5C 760.833,1159.83 760.167,1160.17 759.5,1160.5C 755.839,1171.5 748.172,1176.84 736.5,1176.5C 730.318,1176.92 724.818,1175.25 720,1171.5C 717.488,1163.94 718.655,1156.94 723.5,1150.5C 715.756,1149.71 708.089,1148.87 700.5,1148C 699.384,1154.69 696.384,1160.36 691.5,1165C 682.117,1168.83 673.117,1168.16 664.5,1163C 661.627,1160.09 660.294,1156.59 660.5,1152.5C 648.228,1155.8 636.228,1159.97 624.5,1165C 621.5,1165.33 618.5,1165.67 615.5,1166C 616.167,1166.67 616.833,1167.33 617.5,1168C 623.356,1169.89 629.356,1171.22 635.5,1172C 645.855,1173.47 656.188,1174.8 666.5,1176C 667.517,1177.05 667.684,1178.22 667,1179.5C 658.102,1190.23 660.269,1197.73 673.5,1202C 677.765,1203.02 682.098,1203.52 686.5,1203.5C 698.762,1201.86 711.095,1201.2 723.5,1201.5C 723.649,1202.55 723.483,1203.55 723,1204.5C 699.977,1218.76 675.477,1229.93 649.5,1238C 606.775,1244.14 564.442,1242.14 522.5,1232C 508.498,1228.33 494.832,1223.67 481.5,1218C 459.333,1206.17 444,1188.51 435.5,1165C 433.314,1163.69 431.147,1163.52 429,1164.5C 424.349,1171.47 421.683,1179.14 421,1187.5C 420.282,1188.45 419.449,1188.62 418.5,1188C 411.526,1178.6 409.026,1168.1 411,1156.5C 406.6,1162.06 402.434,1167.72 398.5,1173.5C 396.283,1170.93 395.116,1167.93 395,1164.5C 394.529,1158.46 394.529,1152.46 395,1146.5C 389.14,1150.18 384.973,1155.18 382.5,1161.5C 377.697,1153.68 377.364,1145.68 381.5,1137.5C 373.407,1127.64 367.74,1116.64 364.5,1104.5C 361.736,1105.76 359.403,1107.59 357.5,1110C 356.552,1110.48 355.552,1110.65 354.5,1110.5C 354.334,1104.49 354.501,1098.49 355,1092.5C 357.221,1087.73 358.554,1082.73 359,1077.5C 362.433,1074.87 361.933,1074.03 357.5,1075C 351.078,1077.92 346.078,1082.42 342.5,1088.5C 341.914,1088.29 341.414,1087.96 341,1087.5C 340.668,1076.66 344.835,1067.83 353.5,1061C 349.426,1062.88 345.426,1065.05 341.5,1067.5C 342.023,1061.79 344.19,1056.79 348,1052.5C 352.179,1049.74 356.179,1046.74 360,1043.5C 359.596,1036.37 362.096,1030.53 367.5,1026C 372.833,1023.33 378.167,1020.67 383.5,1018C 393.943,1008.56 403.276,998.229 411.5,987C 414.594,986.348 417.594,986.682 420.5,988C 424.012,990.034 427.345,992.201 430.5,994.5C 432.374,994.61 433.874,993.944 435,992.5C 442,974.997 448.5,957.33 454.5,939.5C 455.167,939.5 455.5,939.833 455.5,940.5C 450.368,957.395 444.535,974.062 438,990.5C 436.39,994.73 433.224,996.896 428.5,997C 427.874,997.75 427.374,998.584 427,999.5C 425.21,1016.47 424.21,1033.47 424,1050.5C 433.667,1037.17 443.333,1023.83 453,1010.5C 453.496,1005.31 452.33,1000.48 449.5,996C 491.027,873.781 532.694,751.614 574.5,629.5C 572.333,629.167 570.167,628.833 568,628.5C 565.375,628.581 563.041,629.248 561,630.5C 541.098,690.043 520.931,749.376 500.5,808.5C 500.5,807.833 500.167,807.5 499.5,807.5C 504.998,791.177 510.165,774.844 515,758.5C 508.287,755.116 502.12,750.95 496.5,746C 488.871,736.703 480.871,727.703 472.5,719C 469.454,716.826 466.12,716.159 462.5,717C 460.557,718.555 458.39,719.722 456,720.5C 449.722,716.556 444.388,711.556 440,705.5C 435.827,709.191 430.993,710.358 425.5,709C 421.405,706.741 417.738,703.907 414.5,700.5C 412.395,703.027 410.061,705.36 407.5,707.5C 406.614,708.325 406.281,709.325 406.5,710.5C 405.833,709.5 405.167,708.5 404.5,707.5C 407.866,704.463 411.2,701.463 414.5,698.5C 417.714,701.876 421.381,704.71 425.5,707C 431.195,708.44 436.195,707.274 440.5,703.5C 445.178,709.177 450.511,714.177 456.5,718.5C 465.012,712.925 472.512,714.258 479,722.5C 485.794,730.963 492.961,739.13 500.5,747C 505.414,750.921 510.581,754.421 516,757.5C 519.102,749.526 521.769,741.526 524,733.5C 521.108,730.943 517.941,728.776 514.5,727C 511.68,722.898 508.68,718.898 505.5,715C 495.167,710.167 484.833,705.333 474.5,700.5C 473.369,698.926 473.202,697.259 474,695.5C 476.124,694.378 477.957,692.878 479.5,691C 461.08,689.492 442.747,687.159 424.5,684C 423.941,683.275 423.608,682.442 423.5,681.5C 424.46,679.523 425.46,677.523 426.5,675.5C 425.833,675.167 425.167,674.833 424.5,674.5C 413.658,678.254 403.658,683.588 394.5,690.5C 393.833,688.167 393.167,685.833 392.5,683.5C 388.132,689.034 382.965,693.701 377,697.5C 376.333,699.167 376.333,700.833 377,702.5C 379.574,704.645 381.407,707.312 382.5,710.5C 387.883,711.495 393.216,711.161 398.5,709.5C 398.5,710.167 398.833,710.5 399.5,710.5C 398.564,714.735 398.231,719.069 398.5,723.5C 397.833,723.167 397.167,722.833 396.5,722.5C 396.5,719.167 396.5,715.833 396.5,712.5C 391.452,713.275 386.452,713.275 381.5,712.5C 380.618,713.76 379.618,714.926 378.5,716C 374.789,716.175 371.122,716.675 367.5,717.5C 370.524,721.518 373.524,725.518 376.5,729.5C 375.833,730.167 375.167,730.833 374.5,731.5C 374.649,730.448 374.483,729.448 374,728.5C 370.513,724.858 367.513,720.858 365,716.5C 361.211,715.157 357.711,715.824 354.5,718.5C 355.833,720.167 357.167,721.833 358.5,723.5C 357.472,725.361 355.972,726.695 354,727.5C 351.128,731.183 348.962,735.183 347.5,739.5C 348.833,739.5 350.167,739.5 351.5,739.5C 351.908,742.599 350.741,744.933 348,746.5C 347.667,748.833 347.333,751.167 347,753.5C 342.483,756.209 342.817,758.542 348,760.5C 350.349,757.984 352.849,755.651 355.5,753.5C 356.167,753.5 356.5,753.833 356.5,754.5C 355.711,754.783 355.044,755.283 354.5,756C 356.126,755.805 357.793,755.805 359.5,756C 360.406,758.447 361.239,760.947 362,763.5C 363.866,778.809 365.532,794.142 367,809.5C 369.878,813.049 371.878,817.049 373,821.5C 376.746,825.413 379.913,829.746 382.5,834.5C 388.118,840.031 394.785,841.864 402.5,840C 405.446,836.931 407.446,833.431 408.5,829.5C 408.328,830.492 408.662,831.158 409.5,831.5C 407.109,840.87 401.109,844.37 391.5,842C 387.069,840.371 383.236,837.871 380,834.5C 378.067,830.302 375.401,826.635 372,823.5C 370.527,819.221 368.527,815.221 366,811.5C 363.394,798.996 362.06,786.329 362,773.5C 360.856,768.556 359.856,763.556 359,758.5C 358.586,758.043 358.086,757.709 357.5,757.5C 354.67,759.835 351.503,761.502 348,762.5C 344.722,761.723 342.555,759.723 341.5,756.5C 341.785,754.431 342.952,753.098 345,752.5C 344.611,748.119 346.111,744.619 349.5,742C 345.96,741.671 344.794,739.838 346,736.5C 348.973,732.026 352.14,727.693 355.5,723.5C 354.112,721.891 353.112,720.058 352.5,718C 354.721,716.505 356.721,714.838 358.5,713C 355.514,709.767 354.847,706.1 356.5,702C 359.137,702.493 361.47,703.827 363.5,706C 367.705,706.318 371.205,704.818 374,701.5C 374.333,699.833 374.667,698.167 375,696.5C 381.779,693.388 386.945,688.555 390.5,682C 394.779,681.084 396.612,682.917 396,687.5C 402.417,682.706 409.25,678.539 416.5,675C 420.418,673.844 424.418,673.344 428.5,673.5C 427.97,676.682 426.97,679.682 425.5,682.5C 443.733,685.381 462.067,687.548 480.5,689C 481.308,689.308 481.975,689.808 482.5,690.5C 480.47,692.607 478.303,694.607 476,696.5C 475.251,697.635 475.417,698.635 476.5,699.5C 488.306,703.986 499.472,709.653 510,716.5C 511.689,718.76 512.856,721.26 513.5,724C 517.513,726.006 521.18,728.506 524.5,731.5C 528.46,721.122 532.126,710.622 535.5,700C 530.729,695.846 526.229,691.346 522,686.5C 520.517,683.298 520.183,679.964 521,676.5C 531.809,659.685 544.142,644.018 558,629.5C 558.211,622.449 558.878,615.449 560,608.5C 562,603.833 565.333,600.5 570,598.5C 576.076,579.937 582.743,561.604 590,543.5C 593.985,541.005 598.152,540.839 602.5,543C 604.297,544.594 605.297,546.594 605.5,549C 597.914,567.421 590.914,586.087 584.5,605C 588.158,608.809 589.658,613.309 589,618.5C 585.938,621.715 582.604,624.715 579,627.5C 572.411,642.1 566.911,657.1 562.5,672.5C 562.686,674.58 563.686,676.08 565.5,677C 572.621,680.644 579.787,684.144 587,687.5C 588,685.833 589,684.167 590,682.5C 592.846,680.743 595.512,678.743 598,676.5C 598.499,672.179 598.666,667.846 598.5,663.5C 595.482,663.665 592.482,663.498 589.5,663C 587.82,662.653 586.82,661.653 586.5,660C 591.75,653.333 595.25,645.833 597,637.5C 605.158,628.391 615.325,624.724 627.5,626.5C 627.665,623.15 627.498,619.817 627,616.5C 622.639,613.553 617.806,611.72 612.5,611C 604.54,607.541 599.207,601.708 596.5,593.5C 596.608,592.558 596.941,591.725 597.5,591C 601.826,591.093 606.159,591.093 610.5,591C 611.76,587.216 613.76,583.883 616.5,581C 625.603,578.587 630.937,582.087 632.5,591.5C 634.5,591.833 636.5,592.167 638.5,592.5C 644.81,591.402 651.144,590.902 657.5,591C 662.054,596.888 667.221,602.054 673,606.5C 674.598,614.048 676.098,621.548 677.5,629C 686.514,628.815 688.681,624.649 684,616.5C 681.456,614.157 679.622,611.49 678.5,608.5C 681.85,608.335 685.183,608.502 688.5,609C 691.869,612.261 695.869,613.261 700.5,612C 701.211,610.745 702.044,609.579 703,608.5C 703.667,613.833 703.667,619.167 703,624.5C 699.774,629.159 697.107,634.159 695,639.5C 691.333,644.134 686.499,646.134 680.5,645.5C 673.828,645.736 667.828,643.903 662.5,640C 657.382,633.73 652.049,627.73 646.5,622C 638.387,619.447 635.553,622.28 638,630.5C 644.212,636.019 647.712,642.852 648.5,651C 648.08,661.693 645.58,671.859 641,681.5C 640.231,684.099 640.398,686.599 641.5,689C 647.305,690.986 653.305,691.986 659.5,692C 670.167,692.667 680.833,692.667 691.5,692C 702.972,689.765 713.972,686.098 724.5,681C 739.839,680.762 755.172,680.762 770.5,681C 779.727,679.217 788.06,675.55 795.5,670C 810.671,660.086 818.671,664.253 819.5,682.5C 824.285,684.039 828.952,685.873 833.5,688C 837.398,694.555 837.398,701.221 833.5,708C 836.916,710.474 840.083,713.307 843,716.5C 843.667,719.167 843.667,721.833 843,724.5C 840.434,727.066 837.934,729.566 835.5,732C 841.311,740.885 840.644,749.219 833.5,757C 828.833,760.333 824.167,760.333 819.5,757C 810.511,745.342 798.844,738.009 784.5,735C 779.5,734.333 774.5,734.333 769.5,735C 759.5,743 749.5,751 739.5,759C 731.374,764.48 722.874,769.313 714,773.5C 713.83,783.009 713.33,792.342 712.5,801.5 Z"/></g>
<g><path style="opacity:1" fill="#dbdbdb" d="M 382.5,1138.5 C 386.422,1140.42 390.088,1142.75 393.5,1145.5C 388.929,1148.62 385.263,1152.62 382.5,1157.5C 379.837,1151.15 379.837,1144.81 382.5,1138.5 Z"/></g>
<g><path style="opacity:1" fill="#0775b2" d="M 734.5,1055.5 C 741.39,1060.23 747.223,1066.23 752,1073.5C 754.059,1080.7 753.393,1087.7 750,1094.5C 747.833,1099.5 745.667,1104.5 743.5,1109.5C 742.833,1109.83 742.167,1110.17 741.5,1110.5C 732.939,1108.51 724.273,1107.18 715.5,1106.5C 722.026,1089.59 728.36,1072.59 734.5,1055.5 Z"/></g>
<g><path style="opacity:1" fill="#0774b0" d="M 653.5,1021.5 C 671.383,1034.21 687.217,1049.21 701,1066.5C 701.81,1071.26 701.476,1075.92 700,1080.5C 696.419,1087.33 692.586,1094 688.5,1100.5C 681.309,1101.69 674.809,1100.03 669,1095.5C 668.612,1092.32 669.279,1089.32 671,1086.5C 674.341,1084.96 677.841,1083.79 681.5,1083C 690.534,1075.1 691.7,1066.27 685,1056.5C 674.702,1047.87 664.702,1038.87 655,1029.5C 653.748,1026.99 653.248,1024.32 653.5,1021.5 Z"/></g>
<g><path style="opacity:1" fill="#e5e5e5" d="M 543.5,987.5 C 544.124,987.917 544.457,988.584 544.5,989.5C 543.442,992.196 542.442,994.863 541.5,997.5C 541.406,999.912 542.406,1001.74 544.5,1003C 540.713,1003.16 537.046,1003.83 533.5,1005C 531.271,1007.55 530.938,1010.39 532.5,1013.5C 534.772,1015.65 537.439,1017.15 540.5,1018C 548.758,1019.81 557.091,1021.15 565.5,1022C 567.93,1026.77 567.763,1031.6 565,1036.5C 560.952,1040.88 557.285,1045.55 554,1050.5C 553.88,1057.17 553.88,1063.84 554,1070.5C 552.484,1075.69 550.318,1080.53 547.5,1085C 547.993,1087.82 549.16,1090.32 551,1092.5C 552.088,1100.36 551.421,1108.03 549,1115.5C 546.766,1117.7 544.266,1119.53 541.5,1121C 547.995,1120.64 551.829,1117.14 553,1110.5C 553.667,1104.5 553.667,1098.5 553,1092.5C 551.815,1090.13 550.649,1087.8 549.5,1085.5C 550.804,1081.56 552.637,1077.89 555,1074.5C 556.156,1070.58 556.656,1066.58 556.5,1062.5C 566.726,1061.86 576.726,1063.02 586.5,1066C 589.69,1068.93 593.357,1070.76 597.5,1071.5C 597.66,1073.2 597.494,1074.87 597,1076.5C 595.596,1078.39 594.43,1080.39 593.5,1082.5C 595.284,1085.23 596.95,1088.06 598.5,1091C 594.858,1098.72 596.358,1105.22 603,1110.5C 603.333,1112.17 603.667,1113.83 604,1115.5C 605.44,1114.07 605.774,1112.4 605,1110.5C 603.2,1107.95 601.2,1105.62 599,1103.5C 598.854,1098.16 598.854,1092.82 599,1087.5C 597.203,1086.07 596.036,1084.24 595.5,1082C 598.218,1079.06 599.718,1075.56 600,1071.5C 604.996,1069.42 609.829,1066.92 614.5,1064C 627.165,1064.07 639.832,1064.07 652.5,1064C 660.583,1062.01 662.75,1057.51 659,1050.5C 652.446,1043.95 645.946,1037.45 639.5,1031C 631.592,1029.42 624.259,1030.75 617.5,1035C 611.484,1039.4 606.317,1044.57 602,1050.5C 600.097,1048.56 599.264,1046.23 599.5,1043.5C 595.029,1043.31 590.696,1042.48 586.5,1041C 589.167,1040.67 591.833,1040.33 594.5,1040C 596.35,1037.98 598.35,1036.15 600.5,1034.5C 602.867,1036.4 605.534,1036.9 608.5,1036C 611.675,1031.66 615.342,1027.83 619.5,1024.5C 611.855,1023.34 604.188,1023.17 596.5,1024C 595.034,1024.64 593.7,1025.47 592.5,1026.5C 593.033,1023.71 591.866,1021.38 589,1019.5C 582.18,1008.58 583.013,1007.42 591.5,1016C 593.568,1016.69 595.568,1016.52 597.5,1015.5C 598.262,1016.63 598.929,1017.79 599.5,1019C 607.781,1020.29 616.114,1020.79 624.5,1020.5C 624.719,1019.32 624.386,1018.32 623.5,1017.5C 615.876,1012.77 608.043,1008.44 600,1004.5C 599.333,1001.83 599.333,999.167 600,996.5C 602.546,999.186 605.713,1000.19 609.5,999.5C 609.642,1002.62 610.976,1005.12 613.5,1007C 623.775,1014.66 635.108,1017.32 647.5,1015C 651.283,1011.89 654.95,1008.72 658.5,1005.5C 659.647,1007.76 659.814,1010.1 659,1012.5C 649.173,1020 649.007,1027.83 658.5,1036C 667.631,1043.46 676.464,1051.3 685,1059.5C 688.802,1066.72 687.969,1073.39 682.5,1079.5C 679.135,1081.68 675.468,1083.18 671.5,1084C 669.951,1085.21 668.785,1086.71 668,1088.5C 667.19,1093.21 667.69,1097.71 669.5,1102C 667.182,1113.49 660.182,1119.32 648.5,1119.5C 658.114,1121.94 664.947,1118.61 669,1109.5C 670.846,1106.43 671.846,1103.1 672,1099.5C 673.648,1100.72 675.481,1101.55 677.5,1102C 697.431,1105.47 717.431,1108.47 737.5,1111C 739.573,1111.12 740.907,1112.12 741.5,1114C 736.303,1124.89 730.969,1135.73 725.5,1146.5C 716.706,1148.03 708.039,1147.53 699.5,1145C 683.812,1144.87 668.479,1147.2 653.5,1152C 644.167,1155.67 634.833,1159.33 625.5,1163C 621.179,1163.5 616.846,1163.67 612.5,1163.5C 612.393,1165.9 613.393,1167.74 615.5,1169C 618.089,1170.2 620.756,1171.2 623.5,1172C 637.14,1174 650.807,1175.66 664.5,1177C 663.122,1178.71 661.455,1180.05 659.5,1181C 611.667,1196.14 563,1199.81 513.5,1192C 504.342,1189.67 495.342,1186.84 486.5,1183.5C 486.167,1183.83 485.833,1184.17 485.5,1184.5C 508.308,1194.05 532.141,1198.72 557,1198.5C 588.643,1197.9 619.81,1193.73 650.5,1186C 655.206,1185.27 659.373,1183.44 663,1180.5C 661.228,1183.25 660.061,1186.42 659.5,1190C 659.446,1194.88 661.446,1198.54 665.5,1201C 672.11,1203.54 678.944,1205.04 686,1205.5C 697.438,1203.71 708.938,1203.21 720.5,1204C 699.117,1217.02 676.45,1227.36 652.5,1235C 593.709,1244.72 536.709,1238.38 481.5,1216C 460.52,1204.19 445.853,1187.02 437.5,1164.5C 447.2,1164.54 456.2,1162.04 464.5,1157C 470.347,1152.82 472.347,1147.32 470.5,1140.5C 470.386,1147.02 467.72,1152.19 462.5,1156C 451.537,1162.44 439.87,1164.11 427.5,1161C 419.483,1158.49 411.816,1155.16 404.5,1151C 398.386,1145.55 391.72,1140.89 384.5,1137C 373.131,1126.21 367.631,1113.05 368,1097.5C 362.994,1091.02 363.827,1085.18 370.5,1080C 372.055,1078.71 373.721,1078.04 375.5,1078C 373.739,1085.43 374.573,1092.59 378,1099.5C 387.164,1121.85 403.664,1135.35 427.5,1140C 452.833,1140 452.833,1139.33 427.5,1138C 410.928,1134.73 397.428,1126.56 387,1113.5C 380.895,1103.08 381.062,1092.75 387.5,1082.5C 388.002,1081.48 388.668,1081.31 389.5,1082C 394.399,1088.73 400.399,1094.23 407.5,1098.5C 407.956,1103.19 409.456,1107.53 412,1111.5C 422.924,1126.02 435.924,1128.35 451,1118.5C 452.241,1117.12 452.408,1115.79 451.5,1114.5C 444.404,1122.44 435.738,1124.61 425.5,1121C 421.928,1119.43 418.928,1117.1 416.5,1114C 420.584,1113.77 424.584,1113.1 428.5,1112C 439.543,1099.14 453.543,1092.14 470.5,1091C 475.876,1085.96 481.542,1081.29 487.5,1077C 501.391,1071.39 514.724,1064.72 527.5,1057C 533.391,1050.77 539.557,1044.94 546,1039.5C 545.537,1031.69 541.37,1026.86 533.5,1025C 525.954,1023.21 519.787,1025.37 515,1031.5C 513.92,1037.87 511.92,1043.87 509,1049.5C 505.385,1053.08 501.218,1054.75 496.5,1054.5C 497.254,1051.22 497.754,1047.89 498,1044.5C 504.515,1040.16 509.348,1034.49 512.5,1027.5C 508.486,1027.33 504.486,1027.5 500.5,1028C 498.36,1028.97 496.693,1030.47 495.5,1032.5C 492.943,1033.41 490.443,1034.41 488,1035.5C 487.505,1033.53 487.338,1031.53 487.5,1029.5C 482.866,1029.52 478.533,1028.35 474.5,1026C 478.114,1025.06 481.781,1024.39 485.5,1024C 486.646,1023.36 487.646,1022.52 488.5,1021.5C 494.808,1022.79 501.141,1022.79 507.5,1021.5C 504.006,1018.18 500.339,1015.01 496.5,1012C 492.206,1010.32 487.872,1010.15 483.5,1011.5C 483.12,1009.98 482.954,1008.31 483,1006.5C 478.783,1003.62 477.449,999.617 479,994.5C 481.236,1002.48 485.236,1003.48 491,997.5C 491.449,1003.63 494.615,1007.8 500.5,1010C 503.993,1010.94 507.326,1012.28 510.5,1014C 513.833,1014.67 517.167,1014.67 520.5,1014C 523.552,1010.28 525.719,1006.12 527,1001.5C 528,1000.83 529,1000.17 530,999.5C 530.116,997.345 529.783,995.345 529,993.5C 530.913,995.187 533.08,995.687 535.5,995C 538.506,992.699 541.172,990.199 543.5,987.5 Z"/></g>
<g><path style="opacity:1" fill="#1e1e1e" d="M 575.5,1121.5 C 576.376,1121.37 577.043,1121.7 577.5,1122.5C 564.225,1134.98 548.892,1144.14 531.5,1150C 522.825,1151.34 514.159,1152.67 505.5,1154C 496.338,1154.97 487.338,1154.63 478.5,1153C 498.86,1153.48 518.86,1151.15 538.5,1146C 546.66,1142.5 554.326,1138.17 561.5,1133C 555.536,1134.43 549.536,1136.09 543.5,1138C 535.833,1138.67 528.167,1138.67 520.5,1138C 516.632,1136.99 512.966,1135.49 509.5,1133.5C 508.167,1132.83 508.167,1132.17 509.5,1131.5C 518.552,1136.44 528.219,1138.27 538.5,1137C 552.35,1135.06 564.684,1129.9 575.5,1121.5 Z"/></g>
<g><path style="opacity:1" fill="#1a1a1a" d="M 508.5,1076.5 C 510.337,1076.64 510.67,1077.31 509.5,1078.5C 496.724,1083.37 491.057,1092.7 492.5,1106.5C 489.255,1096.07 491.922,1087.57 500.5,1081C 503.391,1079.73 506.058,1078.23 508.5,1076.5 Z"/></g>
<g><path style="opacity:1" fill="#e3e3e3" d="M 411.5,988.5 C 418.192,987.846 423.192,990.346 426.5,996C 425.804,997.893 424.97,999.726 424,1001.5C 423.667,1007.17 423.333,1012.83 423,1018.5C 420.292,1022.02 418.626,1026.02 418,1030.5C 412.679,1034.15 408.013,1038.49 404,1043.5C 400.016,1054.4 401.85,1064.24 409.5,1073C 415.528,1076.27 421.528,1076.27 427.5,1073C 429.585,1070.58 430.585,1067.75 430.5,1064.5C 434.068,1064.24 435.401,1062.24 434.5,1058.5C 437.272,1058.78 439.772,1058.11 442,1056.5C 442.301,1053.49 442.135,1050.49 441.5,1047.5C 442.822,1047.67 443.989,1047.34 445,1046.5C 445.495,1043.47 445.329,1040.47 444.5,1037.5C 449.226,1038.14 453.726,1039.47 458,1041.5C 459.534,1045.71 459.867,1050.04 459,1054.5C 451.436,1061.97 444.103,1069.64 437,1077.5C 435.682,1080.48 434.182,1083.31 432.5,1086C 427.062,1088.42 421.395,1090.09 415.5,1091C 412.438,1092.06 409.938,1093.89 408,1096.5C 400.697,1091.36 394.197,1085.36 388.5,1078.5C 383.83,1084.33 380.997,1091 380,1098.5C 378.619,1096.37 377.619,1094.03 377,1091.5C 376.723,1085.74 376.556,1080.07 376.5,1074.5C 367.75,1078.05 363.25,1084.38 363,1093.5C 363.615,1095.12 364.615,1096.45 366,1097.5C 366.494,1099.13 366.66,1100.8 366.5,1102.5C 362.719,1102.97 359.552,1104.64 357,1107.5C 356.333,1102.17 356.333,1096.83 357,1091.5C 359.499,1087.17 360.832,1082.5 361,1077.5C 362.022,1076.65 362.855,1075.65 363.5,1074.5C 360.554,1073.35 357.554,1073.18 354.5,1074C 350.3,1077.17 346.467,1080.67 343,1084.5C 342.628,1078.89 344.294,1073.89 348,1069.5C 352.105,1064.56 356.938,1060.56 362.5,1057.5C 355.741,1056.45 349.908,1058.45 345,1063.5C 345.678,1058.99 347.845,1055.16 351.5,1052C 354.927,1050.2 358.094,1048.04 361,1045.5C 361.875,1040.37 363.208,1035.37 365,1030.5C 371.953,1025.94 379.12,1021.77 386.5,1018C 392.968,1010.53 399.802,1003.36 407,996.5C 408.777,993.941 410.277,991.274 411.5,988.5 Z"/></g>
<g><path style="opacity:1" fill="#1d1d1d" d="M 393.5,1066.5 C 394.978,1066.24 396.311,1066.57 397.5,1067.5C 391.918,1069.46 386.251,1069.8 380.5,1068.5C 384.982,1067.83 389.316,1067.17 393.5,1066.5 Z"/></g>
<g><path style="opacity:1" fill="#1d1d1d" d="M 364.5,1063.5 C 365.097,1062.86 365.93,1062.53 367,1062.5C 371.477,1063.18 375.977,1063.68 380.5,1064C 375.082,1065.99 369.749,1065.82 364.5,1063.5 Z"/></g>
<g><path style="opacity:1" fill="#0f0f0f" d="M 415.5,994.5 C 416.465,995.721 416.298,997.054 415,998.5C 407.47,1005.23 402.803,1013.56 401,1023.5C 398.743,1025.05 396.576,1026.71 394.5,1028.5C 393.797,1032.87 392.964,1037.2 392,1041.5C 388.675,1042.94 385.175,1043.94 381.5,1044.5C 380.926,1047.18 380.259,1049.84 379.5,1052.5C 374.932,1045.68 375.598,1039.51 381.5,1034C 386.059,1032.74 389.392,1030.07 391.5,1026C 398.109,1022.97 401.942,1017.8 403,1010.5C 407,1005 411.166,999.671 415.5,994.5 Z"/></g>
<g><path style="opacity:1" fill="#e5e5e5" d="M 663.5,969.5 C 665.124,969.36 666.29,970.027 667,971.5C 670.75,988.993 677.75,1004.99 688,1019.5C 703.767,1030.63 719.267,1042.13 734.5,1054C 727.22,1070.66 720.22,1087.49 713.5,1104.5C 712.833,1104.83 712.167,1105.17 711.5,1105.5C 704.854,1104.23 698.187,1103.06 691.5,1102C 691.043,1101.59 690.709,1101.09 690.5,1100.5C 695.303,1093.19 699.469,1085.53 703,1077.5C 704.324,1071.66 703.324,1066.32 700,1061.5C 685.737,1046.23 670.571,1032.07 654.5,1019C 660.812,1014.92 663.145,1009.09 661.5,1001.5C 656.858,1003.62 652.858,1006.78 649.5,1011C 648.004,1011.51 646.837,1011.01 646,1009.5C 643.473,1005.78 641.473,1001.78 640,997.5C 637.625,988.375 635.792,979.375 634.5,970.5C 644.366,973.277 654.033,972.943 663.5,969.5 Z"/></g>
<g><path style="opacity:1" fill="#e6e6e6" d="M 876.5,948.5 C 878.924,948.192 881.257,948.526 883.5,949.5C 873.128,959.244 864.961,970.577 859,983.5C 854.576,997.138 852.576,1011.14 853,1025.5C 849.22,1016.36 846.386,1007.03 844.5,997.5C 838.503,1004.49 834.336,1012.49 832,1021.5C 828.593,1031.72 825.593,1042.05 823,1052.5C 822.867,1070.5 822.867,1088.5 823,1106.5C 822.722,1118.34 818.722,1128.68 811,1137.5C 798.524,1153.27 782.358,1159.93 762.5,1157.5C 762.167,1156.83 761.833,1156.17 761.5,1155.5C 763.843,1145.13 766.343,1134.8 769,1124.5C 777.938,1123.3 786.105,1120.13 793.5,1115C 795.041,1113.42 796.208,1111.59 797,1109.5C 793.928,1067.22 805.095,1029.22 830.5,995.5C 824.334,994.271 818.167,994.271 812,995.5C 811.167,995.167 810.333,994.833 809.5,994.5C 825.582,969.967 847.915,954.633 876.5,948.5 Z"/></g>
<g><path style="opacity:1" fill="#0776b3" d="M 559.5,965.5 C 565.797,966.32 572.131,966.653 578.5,966.5C 594.995,967.332 611.662,967.832 628.5,968C 630.049,969.214 631.215,970.714 632,972.5C 633.949,981.906 636.282,991.239 639,1000.5C 641.102,1004.93 643.602,1009.1 646.5,1013C 643.961,1014.05 641.295,1014.55 638.5,1014.5C 630.695,1013.51 623.361,1011.01 616.5,1007C 613.251,1004.77 611.251,1001.77 610.5,998C 608.167,997.667 605.833,997.333 603.5,997C 602.073,994.631 600.239,994.131 598,995.5C 597.163,999.295 597.496,1002.96 599,1006.5C 606.368,1009.43 613.201,1013.27 619.5,1018C 613.175,1018.5 606.842,1018.67 600.5,1018.5C 600.777,1015.55 600.444,1012.72 599.5,1010C 598.551,1009.38 597.718,1009.55 597,1010.5C 596.51,1011.79 596.343,1013.13 596.5,1014.5C 592.054,1014.11 588.721,1011.94 586.5,1008C 585.216,1007.32 584.049,1007.48 583,1008.5C 583.844,1014.19 586.344,1019.19 590.5,1023.5C 589.05,1024.85 588.383,1026.52 588.5,1028.5C 591.564,1028.86 594.231,1028.02 596.5,1026C 602.833,1025.33 609.167,1025.33 615.5,1026C 612.833,1028.67 610.167,1031.33 607.5,1034C 605.866,1034.49 604.199,1034.66 602.5,1034.5C 602.778,1032.65 602.111,1031.32 600.5,1030.5C 596.558,1037.2 590.558,1040.2 582.5,1039.5C 583.924,1041.72 585.924,1043.22 588.5,1044C 591.5,1044.33 594.5,1044.67 597.5,1045C 597.913,1048.17 599.413,1050.67 602,1052.5C 606.783,1046.05 612.617,1040.55 619.5,1036C 625.757,1032.64 632.424,1031.64 639.5,1033C 646.032,1039.2 652.199,1045.7 658,1052.5C 660.244,1057.84 658.41,1061 652.5,1062C 639.828,1062.18 627.162,1062.18 614.5,1062C 610.326,1064.59 605.993,1066.92 601.5,1069C 598.833,1069.67 596.167,1069.67 593.5,1069C 592.122,1067.29 590.455,1065.95 588.5,1065C 577.833,1061.24 566.833,1059.57 555.5,1060C 554.919,1059.11 554.585,1058.11 554.5,1057C 555.899,1049.38 559.732,1043.21 566,1038.5C 570.097,1032.27 570.264,1026.1 566.5,1020C 559.077,1019.65 551.744,1018.65 544.5,1017C 540.549,1016.46 537.049,1014.96 534,1012.5C 533.192,1010.42 533.359,1008.42 534.5,1006.5C 538.367,1005.87 542.2,1005.2 546,1004.5C 545.24,1002.27 544.407,999.94 543.5,997.5C 543.622,995.209 544.455,993.209 546,991.5C 546.497,988.854 546.664,986.187 546.5,983.5C 545.325,983.281 544.325,983.614 543.5,984.5C 541.554,987.981 538.887,990.815 535.5,993C 532.001,993.099 528.668,992.266 525.5,990.5C 524.833,990.833 524.167,991.167 523.5,991.5C 525.167,993.5 526.833,995.5 528.5,997.5C 525.542,1001.94 522.875,1006.61 520.5,1011.5C 517.216,1012.66 513.882,1012.82 510.5,1012C 506.5,1010.33 502.5,1008.67 498.5,1007C 494.508,1004.66 492.675,1001.16 493,996.5C 491.644,995.62 490.144,995.286 488.5,995.5C 488.67,996.822 488.337,997.989 487.5,999C 482.459,999.294 479.959,996.794 480,991.5C 479,990.167 478,990.167 477,991.5C 475.269,998.126 476.769,1003.79 481.5,1008.5C 480.572,1009.77 480.405,1011.1 481,1012.5C 485.052,1012.62 489.219,1012.79 493.5,1013C 508.498,1020.6 507.832,1023.27 491.5,1021C 490.646,1019.98 489.646,1019.14 488.5,1018.5C 487.206,1020.9 485.206,1022.4 482.5,1023C 478.848,1023.5 475.182,1023.67 471.5,1023.5C 471.33,1024.82 471.663,1025.99 472.5,1027C 476.876,1029.4 481.543,1030.9 486.5,1031.5C 485.652,1033.41 485.318,1035.41 485.5,1037.5C 489.194,1036.49 492.861,1035.32 496.5,1034C 499.783,1029.72 504.116,1028.39 509.5,1030C 505.612,1035.22 501.112,1039.72 496,1043.5C 495.911,1048.72 495.078,1053.72 493.5,1058.5C 499.199,1056.7 504.699,1054.36 510,1051.5C 513.312,1045.23 515.646,1038.57 517,1031.5C 519.251,1029.62 521.751,1028.12 524.5,1027C 534.093,1025.12 540.76,1028.62 544.5,1037.5C 539.405,1043.1 534.072,1048.6 528.5,1054C 515.553,1062.31 501.886,1069.31 487.5,1075C 480.621,1079.28 474.288,1084.28 468.5,1090C 461.087,1091.28 453.753,1092.95 446.5,1095C 439.624,1098.87 433.624,1103.87 428.5,1110C 424.289,1111.53 419.956,1111.87 415.5,1111C 410.015,1106.89 408.515,1101.73 411,1095.5C 418.09,1092.84 425.256,1090.34 432.5,1088C 435.293,1084.92 437.46,1081.42 439,1077.5C 446.698,1070.14 454.031,1062.47 461,1054.5C 461.867,1050.04 461.534,1045.71 460,1041.5C 459.167,1040.67 458.333,1039.83 457.5,1039C 452.896,1037.31 448.229,1035.81 443.5,1034.5C 442.5,1034.83 441.833,1035.5 441.5,1036.5C 444.655,1040.88 444.155,1044.55 440,1047.5C 440,1050.17 440,1052.83 440,1055.5C 437.667,1056.17 435.333,1056.83 433,1057.5C 432.505,1059.47 432.338,1061.47 432.5,1063.5C 431.448,1063.35 430.448,1063.52 429.5,1064C 428.426,1066.46 427.426,1068.96 426.5,1071.5C 420.755,1074.24 415.088,1074.07 409.5,1071C 402.808,1061.93 401.975,1052.43 407,1042.5C 410.962,1038.36 415.296,1034.69 420,1031.5C 420.692,1028.06 421.692,1024.73 423,1021.5C 421.966,1033.12 421.633,1044.79 422,1056.5C 432.667,1041.83 443.333,1027.17 454,1012.5C 455.955,1006.66 455.122,1001.16 451.5,996C 457.469,977.759 463.636,959.592 470,941.5C 475.468,940.359 480.968,940.525 486.5,942C 493.833,945.333 501.167,948.667 508.5,952C 496.69,955.937 485.023,960.27 473.5,965C 469.467,968.512 466.134,972.345 463.5,976.5C 473.389,976.601 483.222,975.934 493,974.5C 495.5,974.667 498,974.833 500.5,975C 509.759,980.692 519.426,981.692 529.5,978C 533.024,974.975 536.691,972.142 540.5,969.5C 543.337,972.425 546.671,973.925 550.5,974C 552.585,971.163 552.919,968.163 551.5,965C 554.119,965.083 556.786,965.25 559.5,965.5 Z"/></g>
<g><path style="opacity:1" fill="#e5e5e5" d="M 539.5,882.5 C 541.857,882.337 544.19,882.503 546.5,883C 548.954,888.458 552.954,892.125 558.5,894C 558.014,902.223 556.847,910.39 555,918.5C 548.571,931.554 541.404,944.054 533.5,956C 533.585,957.107 533.919,958.107 534.5,959C 539.5,961.333 544.5,963.667 549.5,966C 552.259,968.574 551.926,970.74 548.5,972.5C 545.854,971.014 543.354,969.348 541,967.5C 536.896,969.933 533.063,972.767 529.5,976C 524.092,978.444 518.426,979.11 512.5,978C 508.066,976.617 503.732,974.95 499.5,973C 497.667,972.833 495.833,972.667 494,972.5C 484.868,973.886 475.701,974.386 466.5,974C 469.751,970.505 473.418,967.505 477.5,965C 487.953,960.738 498.62,957.071 509.5,954C 510.333,953.167 511.167,952.333 512,951.5C 516.211,931.203 520.211,910.87 524,890.5C 529.181,887.661 534.347,884.994 539.5,882.5 Z"/></g>
<g><path style="opacity:1" fill="#e5e5e5" d="M 492.5,873.5 C 500.466,872.867 508.133,874.034 515.5,877C 517.333,878.833 519.167,880.667 521,882.5C 521.818,885.107 522.318,887.774 522.5,890.5C 518.919,910.742 514.586,930.742 509.5,950.5C 502.436,947.551 495.603,944.218 489,940.5C 488.333,937.5 488.333,934.5 489,931.5C 494.333,926.833 499.667,922.167 505,917.5C 505.688,916.668 505.521,916.002 504.5,915.5C 498.816,921.018 492.983,926.351 487,931.5C 486.503,934.146 486.336,936.813 486.5,939.5C 481.507,939.084 476.507,938.751 471.5,938.5C 478.302,916.761 485.302,895.094 492.5,873.5 Z"/></g>
<g><path style="opacity:1" fill="#e4e4e4" d="M 566.5,882.5 C 566.167,883.167 565.833,883.833 565.5,884.5C 563.734,886.771 561.734,888.937 559.5,891C 558.167,891.667 556.833,891.667 555.5,891C 550.684,886.963 548.851,881.796 550,875.5C 551.796,872.073 553.963,868.906 556.5,866C 559.167,865.333 561.833,865.333 564.5,866C 569.125,870.973 569.792,876.473 566.5,882.5 Z"/></g>
<g><path style="opacity:1" fill="#dedede" d="M 519.5,864.5 C 527.254,872.038 536.587,875.705 547.5,875.5C 547.662,877.527 547.495,879.527 547,881.5C 543.515,880.378 540.015,880.544 536.5,882C 532.365,884.403 528.032,886.237 523.5,887.5C 521.367,879.969 520.034,872.302 519.5,864.5 Z"/></g>
<g><path style="opacity:1" fill="#744220" d="M 498.5,858.5 C 504.627,858.177 510.627,858.843 516.5,860.5C 517.238,865.896 518.238,871.229 519.5,876.5C 519.167,876.833 518.833,877.167 518.5,877.5C 516.048,874.941 513.048,873.441 509.5,873C 504.566,871.84 499.566,871.34 494.5,871.5C 495.37,867.018 496.703,862.685 498.5,858.5 Z"/></g>
<g><path style="opacity:1" fill="#e1e1e1" d="M 532.5,846.5 C 533.117,846.611 533.617,846.944 534,847.5C 534.395,851.019 535.395,854.352 537,857.5C 540.982,862.649 545.482,867.315 550.5,871.5C 550.291,872.086 549.957,872.586 549.5,873C 538.97,874.601 529.803,871.768 522,864.5C 520.813,862.956 520.48,861.289 521,859.5C 524.67,854.998 528.503,850.665 532.5,846.5 Z"/></g>
<g><path style="opacity:1" fill="#e2e2e2" d="M 573.5,840.5 C 574.675,840.281 575.675,840.614 576.5,841.5C 578.49,847.647 581.157,853.48 584.5,859C 579.062,861.949 574.062,865.449 569.5,869.5C 566.967,863.798 562.634,861.965 556.5,864C 554.667,865.833 552.833,867.667 551,869.5C 548.692,868.359 546.859,866.692 545.5,864.5C 553.707,855.081 563.04,847.081 573.5,840.5 Z"/></g>
<g><path style="opacity:1" fill="#e4e4e4" d="M 551.5,821.5 C 558.319,825.781 565.652,829.115 573.5,831.5C 574.395,833.246 575.062,835.08 575.5,837C 568.186,842.308 560.852,847.641 553.5,853C 549.964,856.201 546.797,859.701 544,863.5C 538.672,858.53 535.839,852.364 535.5,845C 540.606,837.052 545.94,829.218 551.5,821.5 Z"/></g>
<g><path style="opacity:1" fill="#703f1e" d="M 415.5,806.5 C 418.867,810.182 422.867,813.182 427.5,815.5C 428.494,818.897 428.16,822.23 426.5,825.5C 421.457,821.825 417.124,817.491 413.5,812.5C 414.172,810.47 414.838,808.47 415.5,806.5 Z"/></g>
<g><path style="opacity:1" fill="#e5e5e5" d="M 542.5,802.5 C 547.282,805.447 551.282,809.28 554.5,814C 544.228,830.45 532.228,845.616 518.5,859.5C 512.432,857.007 506.099,856.007 499.5,856.5C 501.821,847.702 504.655,839.036 508,830.5C 522.324,824.679 533.824,815.346 542.5,802.5 Z"/></g>
<g><path style="opacity:1" fill="#e1e1e1" d="M 571.5,801.5 C 572.275,809.506 572.942,817.672 573.5,826C 573.167,827.167 572.833,828.333 572.5,829.5C 567.5,827.333 562.5,825.167 557.5,823C 553.69,820.411 553.523,817.578 557,814.5C 562.378,810.735 567.211,806.402 571.5,801.5 Z"/></g>
<g><path style="opacity:1" fill="#e8da05" d="M 400.5,793.5 C 406.596,791.926 410.762,793.926 413,799.5C 414.588,805.645 413.088,810.811 408.5,815C 402.649,816.157 398.482,813.991 396,808.5C 395.333,804.833 395.333,801.167 396,797.5C 397.397,795.93 398.897,794.596 400.5,793.5 Z"/></g>
<g><path style="opacity:1" fill="#dcdcdc" d="M 550.5,789.5 C 553.584,792.26 555.917,795.593 557.5,799.5C 554.177,800.832 550.843,802.166 547.5,803.5C 546.167,802.833 545.167,801.833 544.5,800.5C 546.779,796.939 548.779,793.273 550.5,789.5 Z"/></g>
<g><path style="opacity:1" fill="#0773af" d="M 421.5,785.5 C 422.75,785.577 423.583,786.244 424,787.5C 427.372,795.581 428.205,803.915 426.5,812.5C 418.677,809.178 414.01,803.345 412.5,795C 415.016,791.318 418.016,788.152 421.5,785.5 Z"/></g>
<g><path style="opacity:1" fill="#e3e3e3" d="M 563.5,784.5 C 567.971,783.911 571.971,784.577 575.5,786.5C 574.915,790.591 573.915,794.591 572.5,798.5C 567.463,803.539 562.129,808.206 556.5,812.5C 554.529,810.192 552.529,807.858 550.5,805.5C 553.188,803.881 556.021,802.547 559,801.5C 559.743,799.559 559.576,797.726 558.5,796C 562.493,793.181 564.16,789.347 563.5,784.5 Z"/></g>
<g><path style="opacity:1" fill="#6f6f6f" d="M 563.5,784.5 C 567.634,783.515 571.968,783.182 576.5,783.5C 576.737,784.791 576.404,785.791 575.5,786.5C 571.971,784.577 567.971,783.911 563.5,784.5 Z"/></g>
<g><path style="opacity:1" fill="#dadada" d="M 526.5,775.5 C 528.289,780.182 530.289,784.849 532.5,789.5C 528.662,793.675 524.162,797.008 519,799.5C 520.972,791.413 523.472,783.413 526.5,775.5 Z"/></g>
<g><path style="opacity:1" fill="#744220" d="M 553.5,765.5 C 554.124,765.917 554.457,766.584 554.5,767.5C 553.121,772.406 552.288,777.406 552,782.5C 543.64,802.56 529.806,817.56 510.5,827.5C 509.386,826.277 509.219,824.944 510,823.5C 512.506,816.49 515.006,809.49 517.5,802.5C 533.598,794.07 545.598,781.736 553.5,765.5 Z"/></g>
<g><path style="opacity:1" fill="#e2e2e2" d="M 535.5,747.5 C 539.331,751.485 543.664,754.985 548.5,758C 550.448,759.439 551.781,761.272 552.5,763.5C 548.761,773.651 542.594,781.984 534,788.5C 531.647,783.113 529.48,777.613 527.5,772C 530.277,763.836 532.944,755.669 535.5,747.5 Z"/></g>
<g><path style="opacity:1" fill="#e4e4e4" d="M 407.5,747.5 C 419.152,756.6 423.652,768.6 421,783.5C 417.353,785.979 414.187,788.979 411.5,792.5C 409.919,787.281 408.753,781.948 408,776.5C 407.5,766.839 407.334,757.172 407.5,747.5 Z"/></g>
<g><path style="opacity:1" fill="#72401f" d="M 398.5,746.5 C 400.806,746.993 403.139,747.326 405.5,747.5C 404.924,762.293 405.924,776.96 408.5,791.5C 406.5,791.5 404.5,791.5 402.5,791.5C 399.648,776.649 398.315,761.649 398.5,746.5 Z"/></g>
<g><path style="opacity:1" fill="#73411f" d="M 411.5,740.5 C 419.651,746.129 424.818,753.796 427,763.5C 427.667,772.5 427.667,781.5 427,790.5C 423.182,782.273 421.515,773.607 422,764.5C 419.152,758.316 415.485,752.649 411,747.5C 410.666,745.153 410.833,742.819 411.5,740.5 Z"/></g>
<g><path style="opacity:1" fill="#e2e2e2" d="M 408.5,829.5 C 407.446,833.431 405.446,836.931 402.5,840C 394.785,841.864 388.118,840.031 382.5,834.5C 379.913,829.746 376.746,825.413 373,821.5C 371.878,817.049 369.878,813.049 367,809.5C 365.532,794.142 363.866,778.809 362,763.5C 361.239,760.947 360.406,758.447 359.5,756C 357.793,755.805 356.126,755.805 354.5,756C 355.044,755.283 355.711,754.783 356.5,754.5C 363.111,749.226 369.445,743.56 375.5,737.5C 377.713,739.774 380.379,741.274 383.5,742C 381.269,743.147 378.935,744.147 376.5,745C 371.461,748.466 370.461,752.633 373.5,757.5C 372.255,749.534 375.922,745.034 384.5,744C 388.884,737.883 392.717,738.049 396,744.5C 395.977,759.818 397.477,774.985 400.5,790C 399.084,792.425 397.25,794.591 395,796.5C 394.333,801.167 394.333,805.833 395,810.5C 398.765,816.984 403.932,818.65 410.5,815.5C 412.089,820.549 411.422,825.215 408.5,829.5 Z"/></g>
<g><path style="opacity:1" fill="#141414" d="M 378.5,772.5 C 379.117,772.611 379.617,772.944 380,773.5C 380.333,781.167 380.667,788.833 381,796.5C 383.81,803.196 385.144,810.196 385,817.5C 385.388,818.428 386.055,819.095 387,819.5C 389.05,818.209 391.217,817.709 393.5,818C 397.062,821.058 400.062,824.558 402.5,828.5C 400.956,830.446 398.956,830.946 396.5,830C 394.167,828.833 391.833,827.667 389.5,826.5C 387.958,827.747 386.458,827.747 385,826.5C 382.016,818.82 380.682,810.82 381,802.5C 380.138,800.913 379.471,799.246 379,797.5C 378.5,789.173 378.334,780.84 378.5,772.5 Z"/></g>
<g><path style="opacity:1" fill="#090909" d="M 390.5,745.5 C 391.5,745.5 392.5,745.5 393.5,745.5C 391.502,750.549 390.336,755.883 390,761.5C 386.541,768.992 382.541,769.325 378,762.5C 376.478,756.028 378.978,752.528 385.5,752C 387.79,750.223 389.457,748.056 390.5,745.5 Z"/></g>
<g><path style="opacity:1" fill="#73411f" d="M 376.5,731.5 C 382.167,731.5 387.833,731.5 393.5,731.5C 393.5,733.5 393.5,735.5 393.5,737.5C 388.981,737.602 384.648,738.102 380.5,739C 377.059,737.682 375.725,735.182 376.5,731.5 Z"/></g>
<g><path style="opacity:1" fill="#949494" d="M 397.5,729.5 C 408.179,729.862 411.846,735.196 408.5,745.5C 396.149,746.148 392.483,740.815 397.5,729.5 Z"/></g>
<g><path style="opacity:1" fill="#0776b3" d="M 641.5,728.5 C 646.167,728.5 650.833,728.5 655.5,728.5C 649.505,747.651 643.005,766.651 636,785.5C 623.183,781.005 610.35,776.505 597.5,772C 596.09,771.632 595.09,770.799 594.5,769.5C 604.34,748.983 620.007,735.316 641.5,728.5 Z"/></g>
<g><path style="opacity:1" fill="#e3e3e3" d="M 770.5,720.5 C 779.675,721.613 788.341,724.447 796.5,729C 800.167,729.667 803.833,729.667 807.5,729C 818.099,723.53 827.266,725.364 835,734.5C 840.557,743.825 838.724,751.325 829.5,757C 826.697,757.755 824.03,757.422 821.5,756C 812.99,745.483 802.323,738.15 789.5,734C 782.882,732.622 776.215,732.289 769.5,733C 768.167,733.667 766.833,734.333 765.5,735C 755.2,744.146 744.533,752.812 733.5,761C 727.188,765.138 720.521,768.638 713.5,771.5C 711.5,764.834 709.5,758.168 707.5,751.5C 712.671,751.124 717.671,749.958 722.5,748C 733.006,741.247 743.34,734.247 753.5,727C 759.16,724.507 764.826,722.341 770.5,720.5 Z"/></g>
<g><path style="opacity:1" fill="#e2e2e2" d="M 374.5,731.5 C 374.628,733.655 374.128,735.655 373,737.5C 366.971,742.699 361.138,748.033 355.5,753.5C 352.849,755.651 350.349,757.984 348,760.5C 342.817,758.542 342.483,756.209 347,753.5C 347.333,751.167 347.667,748.833 348,746.5C 350.741,744.933 351.908,742.599 351.5,739.5C 350.167,739.5 348.833,739.5 347.5,739.5C 348.962,735.183 351.128,731.183 354,727.5C 355.972,726.695 357.472,725.361 358.5,723.5C 357.167,721.833 355.833,720.167 354.5,718.5C 357.711,715.824 361.211,715.157 365,716.5C 367.513,720.858 370.513,724.858 374,728.5C 374.483,729.448 374.649,730.448 374.5,731.5 Z"/></g>
<g><path style="opacity:1" fill="#e5e5e5" d="M 396.5,722.5 C 396.756,724.792 396.423,726.959 395.5,729C 389.175,729.5 382.842,729.666 376.5,729.5C 373.524,725.518 370.524,721.518 367.5,717.5C 371.122,716.675 374.789,716.175 378.5,716C 379.618,714.926 380.618,713.76 381.5,712.5C 386.452,713.275 391.452,713.275 396.5,712.5C 396.5,715.833 396.5,719.167 396.5,722.5 Z"/></g>
<g><path style="opacity:1" fill="#e4e4e4" d="M 548.5,709.5 C 558.647,714.071 567.981,719.905 576.5,727C 575.683,728.49 574.85,729.99 574,731.5C 573.5,740.494 573.334,749.494 573.5,758.5C 569.619,757.226 565.952,755.393 562.5,753C 561.167,752.333 559.833,752.333 558.5,753C 557.79,756.825 556.956,760.658 556,764.5C 550.959,757.792 544.959,752.125 538,747.5C 537.333,745.5 537.333,743.5 538,741.5C 541.611,730.835 545.111,720.168 548.5,709.5 Z"/></g>
<g><path style="opacity:1" fill="#6f3f1e" d="M 398.5,723.5 C 398.231,719.069 398.564,714.735 399.5,710.5C 401.117,709.962 402.784,709.629 404.5,709.5C 405.372,715.789 405.705,722.122 405.5,728.5C 403.194,728.007 400.861,727.674 398.5,727.5C 398.5,726.167 398.5,724.833 398.5,723.5 Z"/></g>
<g><path style="opacity:1" fill="#e4e4e4" d="M 797.5,706.5 C 809.739,706.082 821.739,707.582 833.5,711C 836,712.833 838.5,714.667 841,716.5C 843.001,723.166 840.668,727.499 834,729.5C 829.219,726.52 824.052,724.854 818.5,724.5C 813.037,725.226 807.704,726.56 802.5,728.5C 794.187,725.346 785.854,722.179 777.5,719C 783.318,713.324 789.984,709.158 797.5,706.5 Z"/></g>
<g><path style="opacity:1" fill="#d9d9d9" d="M 356.5,703.5 C 359.234,705.55 362.234,707.216 365.5,708.5C 369.041,707.48 372.208,705.814 375,703.5C 379.215,705.715 380.381,709.048 378.5,713.5C 372.537,714.496 366.537,714.829 360.5,714.5C 358.36,711.203 357.027,707.536 356.5,703.5 Z"/></g>
<g><path style="opacity:1" fill="#e7e7e7" d="M 499.5,807.5 C 496.859,809.453 493.859,810.953 490.5,812C 470.456,817.22 450.29,821.72 430,825.5C 429.35,803.903 428.683,782.236 428,760.5C 427.058,757.007 425.725,753.674 424,750.5C 417.879,744.388 412.546,737.722 408,730.5C 407.665,723.809 407.165,717.143 406.5,710.5C 406.281,709.325 406.614,708.325 407.5,707.5C 410.061,705.36 412.395,703.027 414.5,700.5C 417.738,703.907 421.405,706.741 425.5,709C 430.993,710.358 435.827,709.191 440,705.5C 444.388,711.556 449.722,716.556 456,720.5C 458.39,719.722 460.557,718.555 462.5,717C 466.12,716.159 469.454,716.826 472.5,719C 480.871,727.703 488.871,736.703 496.5,746C 502.12,750.95 508.287,755.116 515,758.5C 510.165,774.844 504.998,791.177 499.5,807.5 Z"/></g>
<g><path style="opacity:1" fill="#dddddd" d="M 541.5,678.5 C 542.097,678.735 542.43,679.235 542.5,680C 540.523,685.428 538.857,690.928 537.5,696.5C 531.02,694.03 526.02,689.696 522.5,683.5C 526.796,682.672 531.129,682.172 535.5,682C 538.025,681.576 540.025,680.41 541.5,678.5 Z"/></g>
<g><path style="opacity:1" fill="#e5e5e5" d="M 404.5,707.5 C 402.297,707.604 400.297,708.27 398.5,709.5C 393.216,711.161 387.883,711.495 382.5,710.5C 381.407,707.312 379.574,704.645 377,702.5C 376.333,700.833 376.333,699.167 377,697.5C 382.965,693.701 388.132,689.034 392.5,683.5C 393.167,685.833 393.833,688.167 394.5,690.5C 403.658,683.588 413.658,678.254 424.5,674.5C 425.167,674.833 425.833,675.167 426.5,675.5C 425.46,677.523 424.46,679.523 423.5,681.5C 423.608,682.442 423.941,683.275 424.5,684C 442.747,687.159 461.08,689.492 479.5,691C 477.957,692.878 476.124,694.378 474,695.5C 473.202,697.259 473.369,698.926 474.5,700.5C 484.833,705.333 495.167,710.167 505.5,715C 508.68,718.898 511.68,722.898 514.5,727C 517.941,728.776 521.108,730.943 524,733.5C 521.769,741.526 519.102,749.526 516,757.5C 510.581,754.421 505.414,750.921 500.5,747C 492.961,739.13 485.794,730.963 479,722.5C 472.512,714.258 465.012,712.925 456.5,718.5C 450.511,714.177 445.178,709.177 440.5,703.5C 436.195,707.274 431.195,708.44 425.5,707C 421.381,704.71 417.714,701.876 414.5,698.5C 411.2,701.463 407.866,704.463 404.5,707.5 Z"/></g>
<g><path style="opacity:1" fill="#e2e2e2" d="M 530.5,665.5 C 534.951,668.111 539.284,670.944 543.5,674C 542.5,676.333 540.833,678 538.5,679C 533.246,680.271 527.913,680.771 522.5,680.5C 523.839,674.824 526.505,669.824 530.5,665.5 Z"/></g>
<g><path style="opacity:1" fill="#e4e4e4" d="M 632.5,660.5 C 636.833,660.5 641.167,660.5 645.5,660.5C 643.47,668.757 641.136,676.924 638.5,685C 638.221,688.721 639.888,691.055 643.5,692C 663.231,695.374 682.897,695.208 702.5,691.5C 708.713,693.088 715.047,693.921 721.5,694C 725.833,697 730.167,700 734.5,703C 746.066,701.803 756.733,704.303 766.5,710.5C 767.833,709.833 767.833,709.167 766.5,708.5C 756.756,702.23 746.09,699.73 734.5,701C 730.553,698.72 726.887,696.053 723.5,693C 719.5,692.667 715.5,692.333 711.5,692C 709.956,691.71 708.623,691.044 707.5,690C 713.053,687.39 718.719,685.057 724.5,683C 736.176,682.364 747.842,682.531 759.5,683.5C 769.555,683.07 779.222,680.903 788.5,677C 793.906,673.268 799.573,669.935 805.5,667C 810.97,665.779 814.47,667.946 816,673.5C 816.667,676.5 816.667,679.5 816,682.5C 793.23,698.814 768.73,701.814 742.5,691.5C 742.167,691.833 741.833,692.167 741.5,692.5C 766.733,703.497 790.733,701.331 813.5,686C 815.034,685.077 816.701,684.577 818.5,684.5C 824.275,685.587 829.442,687.921 834,691.5C 836.611,698.271 835.111,703.938 829.5,708.5C 817.984,704.78 806.317,703.946 794.5,706C 792.167,707 789.833,708 787.5,709C 783.341,712.247 779.008,715.247 774.5,718C 767.227,719.536 760.227,721.869 753.5,725C 743.659,731.42 733.993,738.087 724.5,745C 719.268,747.633 713.768,749.466 708,750.5C 702.798,742.643 696.965,735.143 690.5,728C 683.842,722.17 676.175,718.17 667.5,716C 662.075,709.192 655.075,706.525 646.5,708C 643.305,709.695 640.972,712.195 639.5,715.5C 634.215,717.206 629.049,719.206 624,721.5C 621.018,719.958 617.851,718.791 614.5,718C 611.278,716.01 610.778,713.51 613,710.5C 613.948,708.43 615.448,706.93 617.5,706C 624.492,706.165 631.492,706.165 638.5,706C 642.37,703.235 646.37,700.735 650.5,698.5C 657.944,702.638 665.444,706.638 673,710.5C 676.623,709.516 679.623,707.516 682,704.5C 682.688,703.668 682.521,703.002 681.5,702.5C 679.072,705.098 676.239,707.098 673,708.5C 666.606,705.387 660.439,701.887 654.5,698C 648.127,696.999 642.794,698.999 638.5,704C 637.127,704.875 635.627,705.375 634,705.5C 628.602,703.777 623.102,703.277 617.5,704C 613.545,706.119 610.878,709.285 609.5,713.5C 610.758,718.641 614.092,721.141 619.5,721C 620.167,721.667 620.833,722.333 621.5,723C 606.949,732.051 595.282,743.884 586.5,758.5C 584.752,750.198 585.586,742.198 589,734.5C 589.499,730.514 589.666,726.514 589.5,722.5C 602.129,720.037 608.295,712.371 608,699.5C 604.506,687.154 597.673,684.654 587.5,692C 576.742,702.454 576.909,712.621 588,722.5C 588.167,723.833 588.333,725.167 588.5,726.5C 587.108,732.513 585.608,738.513 584,744.5C 583.695,751.183 583.695,757.85 584,764.5C 580.931,770.209 578.764,776.209 577.5,782.5C 572.489,782.334 567.489,782.501 562.5,783C 561.726,785.405 561.226,787.905 561,790.5C 556.78,794.386 554.28,793.22 553.5,787C 554.94,776.084 556.606,765.251 558.5,754.5C 563.954,755.227 568.62,757.56 572.5,761.5C 573.086,761.291 573.586,760.957 574,760.5C 575.282,750.933 575.949,741.266 576,731.5C 576.85,729.99 577.683,728.49 578.5,727C 576.846,724.013 574.513,721.679 571.5,720C 563.748,716.06 556.415,711.56 549.5,706.5C 553.242,696.106 557.075,685.772 561,675.5C 568.764,680.882 577.097,685.216 586,688.5C 586.833,688.333 587.667,688.167 588.5,688C 589.928,685.815 591.595,683.815 593.5,682C 596.581,680.913 599.081,679.08 601,676.5C 604.221,677.792 607.387,677.626 610.5,676C 613.273,673.617 615.439,670.783 617,667.5C 618.699,668.406 620.533,668.739 622.5,668.5C 620.926,679.653 617.092,689.986 611,699.5C 610.333,700.5 610.333,701.5 611,702.5C 616.379,695.394 623.546,691.894 632.5,692C 627.075,690.775 622.075,691.609 617.5,694.5C 617.167,694 616.833,693.5 616.5,693C 620.933,685.034 623.766,676.534 625,667.5C 627.998,665.667 630.498,663.334 632.5,660.5 Z"/></g>
<g><path style="opacity:1" fill="#d3d3d3" d="M 648.5,708.5 C 654.114,708.649 659.114,710.482 663.5,714C 656.5,714.667 649.5,714.667 642.5,714C 644.342,711.926 646.342,710.093 648.5,708.5 Z"/></g>
<g><path style="opacity:1" fill="#dcdcdc" d="M 594.5,689.5 C 600.549,690.035 604.382,693.368 606,699.5C 606.82,709.351 602.654,716.185 593.5,720C 587.662,720.863 583.829,718.363 582,712.5C 580.959,707.56 581.626,702.894 584,698.5C 587.103,694.886 590.603,691.886 594.5,689.5 Z"/></g>
<g><path style="opacity:1" fill="#1b1b1b" d="M 593.5,695.5 C 598.492,695.825 601.158,698.492 601.5,703.5C 602.256,709.968 599.589,713.968 593.5,715.5C 588.627,714.614 586.294,711.614 586.5,706.5C 587.092,701.633 589.425,697.966 593.5,695.5 Z"/></g>
<g><path style="opacity:1" fill="#e3e3e3" d="M 593.5,697.5 C 598.012,697.468 600.012,699.801 599.5,704.5C 599.711,709.101 597.711,712.101 593.5,713.5C 590.138,712.638 588.472,710.471 588.5,707C 588.726,703.046 590.393,699.879 593.5,697.5 Z"/></g>
<g><path style="opacity:1" fill="#dbdbdb" d="M 594.5,649.5 C 597.269,650.437 599.936,651.604 602.5,653C 606.821,653.499 611.154,653.666 615.5,653.5C 614.911,658.481 614.411,663.481 614,668.5C 611.643,674.846 607.31,676.846 601,674.5C 600.501,670.848 600.335,667.182 600.5,663.5C 604.826,664.171 607.826,662.504 609.5,658.5C 609.167,658.167 608.833,657.833 608.5,657.5C 607.027,660.148 604.86,661.815 602,662.5C 597.856,661.836 593.689,661.336 589.5,661C 589.167,660.667 588.833,660.333 588.5,660C 590.903,656.689 592.903,653.189 594.5,649.5 Z"/></g>
<g><path style="opacity:1" fill="#e7da05" d="M 621.5,648.5 C 627.979,647.978 631.312,650.978 631.5,657.5C 631.594,659.912 630.594,661.745 628.5,663C 625.126,666.254 621.293,667.088 617,665.5C 615.378,658.885 616.878,653.219 621.5,648.5 Z"/></g>
<g><path style="opacity:1" fill="#e1e1e1" d="M 557.5,632.5 C 554.071,645.795 549.738,659.129 544.5,672.5C 540.104,669.975 536.104,666.975 532.5,663.5C 539.719,652.28 548.052,641.946 557.5,632.5 Z"/></g>
<g><path style="opacity:1" fill="#d7d7d7" d="M 580.5,610.5 C 583.129,609.073 585.295,609.739 587,612.5C 588.31,616.7 586.81,619.367 582.5,620.5C 581.833,617.023 581.166,613.689 580.5,610.5 Z"/></g>
<g><path style="opacity:1" fill="#e4e4e4" d="M 567.5,602.5 C 571.95,602.142 575.45,603.808 578,607.5C 583.489,624.179 577.656,630.513 560.5,626.5C 560.196,620.423 560.696,614.423 562,608.5C 563.36,605.977 565.193,603.977 567.5,602.5 Z"/></g>
<g><path style="opacity:1" fill="#e4e4e4" d="M 616.5,582.5 C 619.518,582.335 622.518,582.502 625.5,583C 628.345,586.361 630.679,590.028 632.5,594C 640.877,594.15 649.211,593.817 657.5,593C 660.667,598.833 665.167,603.333 671,606.5C 672.932,612.656 673.932,618.989 674,625.5C 677.143,632.725 681.477,633.392 687,627.5C 688.729,620.795 686.895,615.295 681.5,611C 682.729,610.219 684.062,609.719 685.5,609.5C 687.944,610.767 690.277,612.267 692.5,614C 695.429,614.777 698.263,614.61 701,613.5C 701.667,616.833 701.667,620.167 701,623.5C 698,629.167 695,634.833 692,640.5C 690.509,642.004 688.676,642.837 686.5,643C 679.129,644.31 672.129,643.31 665.5,640C 659.833,633.667 654.167,627.333 648.5,621C 641.364,616.463 636.697,618.297 634.5,626.5C 638.1,632.61 641.933,638.61 646,644.5C 646.499,649.155 646.666,653.821 646.5,658.5C 642.167,658.5 637.833,658.5 633.5,658.5C 633.142,650.638 629.142,646.805 621.5,647C 618.523,650.959 614.523,652.459 609.5,651.5C 606.833,651.333 604.167,651.167 601.5,651C 599.783,649.441 597.783,648.608 595.5,648.5C 596.752,637.743 602.752,631.243 613.5,629C 618.167,628.667 622.833,628.333 627.5,628C 630.694,622.401 630.028,617.401 625.5,613C 615.661,611.485 607.494,606.985 601,599.5C 599.293,597.091 598.46,594.425 598.5,591.5C 602.796,592.463 607.129,592.629 611.5,592C 613.64,589.08 615.306,585.913 616.5,582.5 Z"/></g>
<g><path style="opacity:1" fill="#e3e3e3" d="M 593.5,542.5 C 598.724,541.936 602.057,544.103 603.5,549C 595.608,567.844 588.608,587.01 582.5,606.5C 579.07,604.427 575.403,602.76 571.5,601.5C 576.161,585.685 581.327,570.018 587,554.5C 588.402,550.025 590.569,546.025 593.5,542.5 Z"/></g>
<g><path style="opacity:1" fill="#e4e4e4" d="M 683.5,1146.5 C 688.5,1146.5 693.5,1146.5 698.5,1146.5C 695.325,1164.86 684.991,1170.36 667.5,1163C 663.561,1160.14 661.894,1156.47 662.5,1152C 669.583,1149.98 676.583,1148.15 683.5,1146.5 Z"/></g>
<g><path style="opacity:1" fill="#dadada" d="M 397.5,1148.5 C 401.514,1150.51 405.181,1153.01 408.5,1156C 405.396,1160.78 401.896,1165.28 398,1169.5C 396.309,1162.51 396.142,1155.51 397.5,1148.5 Z"/></g>
<g><path style="opacity:1" fill="#dfdfdf" d="M 413.5,1158.5 C 418.358,1159.59 423.025,1161.26 427.5,1163.5C 423.273,1170.29 420.439,1177.62 419,1185.5C 412.887,1177.38 411.054,1168.38 413.5,1158.5 Z"/></g>
<g><path style="opacity:1" fill="#1d1d1d" d="M 629.5,1133.5 C 630.675,1133.28 631.675,1133.61 632.5,1134.5C 605.81,1152.67 576.476,1164.5 544.5,1170C 524.064,1172.37 503.731,1171.71 483.5,1168C 519.626,1173.41 554.626,1169.41 588.5,1156C 597.833,1151.33 607.167,1146.67 616.5,1142C 608.951,1143.8 601.284,1145.47 593.5,1147C 581.451,1147.89 569.451,1147.56 557.5,1146C 582.849,1148.61 606.849,1144.44 629.5,1133.5 Z"/></g>
<g><path style="opacity:1" fill="#1a1a1a" d="M 476.5,1198.5 C 477.251,1197.43 478.251,1197.26 479.5,1198C 515.531,1218.55 554.365,1228.72 596,1228.5C 606.18,1228.27 616.347,1227.77 626.5,1227C 643.586,1224.43 660.586,1221.76 677.5,1219C 673.608,1220.64 669.608,1221.97 665.5,1223C 619.333,1232.27 573.333,1231.6 527.5,1221C 509.708,1215.1 492.708,1207.6 476.5,1198.5 Z"/></g>
</svg>
